<svg xmlns="http://www.w3.org/2000/svg" width="100" height="100" viewBox="0 0 4 4">
    <rect width="4" height="4" x="0" fill="#D52B1E" id="rect2" />
    <rect width="2" height="1.04" x="1" fill="#ffffff" id="rect4" y="0" style="stroke-width:0.509903" />
    <path fill="#ffffff" d="M 1,1 H 3 V 3 H 1 Z m 1.0375001,1.8458334 -0.01875,-0.3595835 a 0.03958333,0.03958333 0 0 1 0.04625,-0.040833 l 0.3579166,0.062917 -0.048333,-0.1333332 a 0.02708333,0.02708334 0 0 1 0.00833,-0.030417 L 2.775,2.0270833 2.686667,1.9858334 A 0.02708333,0.02708334 0 0 1 2.672501,1.9529169 l 0.0775,-0.2383334 -0.2258333,0.047917 A 0.02708333,0.02708334 0 0 1 2.4937517,1.746667 l -0.04375,-0.1029167 -0.17625,0.1891667 a 0.02708333,0.02708334 0 0 1 -0.04625,-0.02375 l 0.085,-0.4383335 -0.13625,0.07875 a 0.02708333,0.02708334 0 0 1 -0.037916,-0.01125 L 2,1.1666666 1.8616667,1.4383333 a 0.02708333,0.02708334 0 0 1 -0.037916,0.01125 l -0.13625,-0.07875 0.085,0.4383335 a 0.02708333,0.02708334 0 0 1 -0.04625,0.02375 L 1.55,1.64375 1.50625,1.7466666 a 0.02708333,0.02708334 0 0 1 -0.030417,0.015834 l -0.2258334,-0.047917 0.0775,0.2383333 a 0.02708333,0.02708334 0 0 1 -0.014166,0.032917 l -0.088333,0.04125 0.3920833,0.3175 a 0.02708333,0.02708334 0 0 1 0.00833,0.030416 L 1.5770834,2.5083332 1.935,2.4454166 a 0.03958333,0.03958333 0 0 1 0.04625,0.040833 L 1.9625,2.8458336 Z" id="path6" style="stroke-width:0.000416666" />
    <rect width="2" height="1.04" x="1" fill="#ffffff" id="rect4-2" y="2.96" style="stroke-width:0.509902" />
</svg>
