<svg xmlns="http://www.w3.org/2000/svg" width="599.99976" height="599.99982" viewBox="0 0 582.52416 582.52382">
   <path fill="#ffffff" d="M 0,0 H 582.52396 V 582.524 H 0 Z" id="path2" style="stroke-width:0.774596" />
   <path d="m 221.02498,180.184 c 0,7.456 0.932,8.388 1.398,9.786 0.466,1.398 1.049,27.028 -2.796,34.02 -3.845,6.99 -11.418,10.95 -14.447,11.65 -3.029,0.699 -12.582,-6.058 -21.438,-8.855 -8.854,-2.796 -8.388,-2.33 -12.115,-2.33 -3.727,0 -12.117,3.145 -14.447,5.127 -1.514,-0.233 -1.864,-0.932 -2.796,0 -0.93,0.932 -4.66,4.66 -5.592,6.99 -0.932,2.33 -3.261,11.185 -6.058,12.116 -2.796,0.932 -10.37,8.504 -15.379,8.856 -5.009,0.35 -3.612,-0.233 -6.99,-0.466 -3.378,-0.233 -3.728,-3.728 -6.99,-5.593 -3.262,-1.864 -4.195,-3.262 -4.195,-3.262 0,0 -0.932,-3.728 -2.33,-3.728 -1.397,0 -2.795,6.525 -2.795,8.39 0,1.864 3.727,8.854 5.592,10.251 1.864,1.398 1.864,9.787 0.932,12.116 -0.932,2.33 1.864,4.662 2.33,6.99 0.465,2.33 -2.796,4.194 -1.398,4.66 1.397,0.466 3.263,3.262 3.263,6.06 0,2.795 6.99,3.727 8.388,6.523 1.398,2.797 1.864,7.457 2.33,10.254 0.466,2.796 2.097,1.514 2.33,8.388 2.213,1.049 5.591,3.261 8.387,4.66 2.797,1.398 2.332,4.66 6.059,6.059 3.728,1.397 3.728,0 5.592,0.465 1.864,0.466 -0.932,0.933 2.33,1.864 3.263,0.932 4.66,-0.465 7.457,0.932 2.796,1.398 4.194,4.661 6.059,5.593 1.864,0.932 9.786,3.261 10.252,3.728 0.466,0.465 5.592,2.33 6.524,2.33 0.932,0 3.728,-1.865 3.728,-1.865 0,0 3.263,0.932 6.059,0 2.796,-0.93 4.66,-3.728 6.524,-3.728 1.864,0 2.33,0.932 4.194,0.932 1.864,0 4.66,-0.932 4.66,-0.932 0,0 4.194,-0.932 7.456,0.932 3.262,1.865 10.718,10.72 10.718,14.448 0,3.727 -0.465,5.592 -0.465,5.592 0,0 3.727,-0.467 5.125,0.465 1.398,0.933 1.282,-0.815 11.65,0.933 -0.698,-2.564 -10.718,-9.786 -1.397,-20.04 9.32,-10.253 9.903,-6.058 12.116,-7.921 2.214,-1.865 10.719,-7.342 25.165,-2.331 13.98,-2.33 3.728,-4.193 11.65,-4.66 1.399,-0.583 4.08,0.116 6.992,0.933 0.932,-1.749 2.913,-3.38 6.058,-2.798 0.583,-1.63 4.426,-3.844 8.388,-4.193 0.583,-3.146 10.603,-7.106 16.311,-7.457 2.33,-2.097 5.01,-11.417 17.709,-6.99 0.465,-3.028 2.563,-7.923 6.058,-8.855 0.7,-6.29 -1.633,-18.99 4.66,-23.3 6.29,-5.71 12.233,-4.429 22.835,-4.194 7.224,1.515 10.719,6.99 13.048,7.456 2.33,0.466 3.262,0.466 6.058,-1.397 2.796,-1.865 -0.465,-5.593 1.864,-5.593 2.33,0 1.397,0.466 5.127,0 3.728,-0.465 3.262,-1.747 5.592,-2.329 3.729,1.865 7.922,0.465 9.786,1.864 1.865,1.397 2.097,1.28 6.058,1.864 1.398,2.33 5.126,2.33 5.126,2.33 0,0 -2.795,-0.933 -1.863,-2.33 0.932,-1.398 0,-5.593 -1.865,-7.457 -1.864,-1.864 -2.796,-2.33 -4.194,-4.193 -1.397,-1.864 0.465,-1.865 -1.865,-4.194 -2.329,-2.33 -7.455,-4.66 -8.853,-7.457 -1.397,-2.796 -0.932,-4.66 -3.262,-6.99 -2.33,-2.33 -11.65,-10.252 -12.116,-18.64 -0.465,-8.39 0.465,-16.427 6.057,-19.108 -0.233,-4.893 0.933,-5.592 6.059,-8.388 5.125,-2.796 5.594,-0.932 8.854,-0.932 3.261,0 5.127,0.466 8.388,-1.863 3.263,-2.33 0.466,-7.456 8.855,-14.913 8.39,-7.456 11.65,-11.184 14.447,-11.65 2.797,-0.466 12.931,-7.573 17.243,-6.99 3.03,-3.611 6.058,-7.923 9.787,-10.719 3.728,-2.796 7.923,-2.796 9.786,-5.126 1.864,-2.33 1.397,-6.525 6.99,-10.254 5.592,-3.727 10.254,-6.057 12.583,-7.922 2.329,-1.864 7.456,-0.466 9.32,-2.33 1.864,-1.864 1.864,-8.854 3.727,-10.252 1.865,-1.398 -6.057,3.262 -10.251,5.126 -4.194,1.864 -10.253,5.126 -15.379,4.66 -5.126,-0.466 -2.33,2.795 -5.126,3.728 -2.796,0.932 -7.456,0.466 -9.321,2.33 -1.864,1.864 -5.126,6.525 -7.922,8.389 -2.797,1.863 -4.194,1.398 -6.99,2.796 -2.797,1.398 -5.126,2.796 -7.456,3.728 -2.33,0.932 -9.322,0.466 -9.322,0.466 0,0 -6.058,7.922 -8.854,10.718 -2.796,2.796 -6.058,2.33 -8.854,3.728 -2.797,1.398 -26.564,16.777 -42.873,19.107 -16.312,2.33 -8.856,-1.398 -13.98,0 -5.126,1.398 -12.584,11.184 -18.642,11.65 -6.058,0.467 -7.922,0 -9.32,0 -1.398,0 -8.854,4.66 -13.515,3.729 -6.873,2.097 -11.999,1.631 -13.98,1.397 -1.98,-0.232 -5.592,2.33 -10.719,0 -3.96,-1.28 -3.96,1.515 -11.65,-0.931 -7.69,-2.447 -13.049,0.932 -16.777,-0.932 -3.728,-1.864 -3.262,-3.262 -6.058,-3.262 -2.796,0 -2.796,1.864 -6.058,1.864 -3.262,0 -3.728,-1.864 -6.525,-1.864 -2.796,0 -6.058,1.864 -10.252,1.398 -4.194,-0.466 -5.592,-2.33 -8.388,-2.33 -2.797,-0.003 -18.176,-6.527 -18.176,-6.527 z" fill="#ed8000" id="path4" />
   <g fill="#006651" id="g12" transform="translate(-194.17502)">
      <path d="m 462.879,464.855 c 8.09,-5.825 15.21,-7.767 26.213,-9.708 11.004,-1.942 22.655,-5.177 28.802,-6.796 6.148,-1.62 -20.71,7.767 -27.507,9.708 -6.796,1.942 -27.508,6.796 -27.508,6.796 z m 44.337,-17.153 c -2.265,-13.915 3.234,-28.478 15.856,-34.303 2.912,10.031 -6.148,27.185 -15.856,34.303 z m 21.311,-7.242 c -6.748,-11.527 4.674,-26.396 13.04,-33.686 3.837,6.947 -2.96,27.66 -13.04,33.686 z m 19.789,-8.939 c -7.215,-9.885 1.294,-27.184 10.356,-33.98 3.56,9.709 0,27.184 -10.356,33.98 z M 568.11,419.16 c -6.527,-9.323 -1.994,-23.886 7.39,-33.27 6.797,7.767 0.972,24.596 -7.39,33.27 z m 15.805,-12.557 c -5.501,-8.738 1.295,-29.775 10.033,-35.6 3.883,7.767 0.97,29.775 -10.033,35.6 z m 12.621,-3.237 c -1.618,-12.621 20.39,-26.538 29.45,-26.214 -0.97,10.356 -10.357,21.684 -29.45,26.214 z m -12.297,14.239 c 10.355,-10.68 30.42,-10.68 37.54,-8.414 -1.942,6.15 -25.565,19.74 -37.54,8.414 z" id="path6" />
      <path d="m 569.998,428.285 c 14.563,-3.884 23.95,-7.12 32.687,1.941 -6.15,7.767 -29.774,5.501 -32.687,-1.941 z m -20.711,9.385 c 13.915,-7.444 30.744,3.56 33.332,10.032 -15.534,6.474 -33.654,-8.412 -33.332,-10.031 z m -19.095,10.68 c 12.622,-4.854 27.185,1.62 33.01,8.738 -6.796,3.235 -24.596,6.797 -33.01,-8.737 z m -17.474,5.502 c 14.564,-1.618 28.537,9.403 31.582,15.704 -18.638,1.771 -25.756,-3.73 -31.582,-15.704 z m -4.691,11.003 c -8.091,-5.825 -15.21,-7.767 -26.213,-9.708 -11.004,-1.942 -22.655,-5.177 -28.803,-6.796 -6.149,-1.62 20.711,7.767 27.507,9.708 6.797,1.942 27.51,6.796 27.51,6.796 z M 463.69,447.702 c 2.264,-13.915 -3.236,-28.478 -15.858,-34.303 -2.913,10.031 6.149,27.185 15.857,34.303 z m -21.312,-7.242 c 6.748,-11.527 -4.674,-26.396 -13.041,-33.686 -3.836,6.947 2.96,27.66 13.04,33.686 z m -19.79,-8.939 c 7.216,-9.885 -1.293,-27.184 -10.355,-33.98 -3.56,9.709 0,27.184 10.355,33.98 z M 402.793,419.16 c 6.527,-9.323 1.995,-23.886 -7.39,-33.27 -6.795,7.767 -0.97,24.596 7.39,33.27 z M 386.99,406.603 c 5.501,-8.738 -1.295,-29.775 -10.033,-35.6 -3.883,7.767 -0.97,29.775 10.033,35.6 z m -12.621,-3.237 c 1.617,-12.621 -20.39,-26.538 -29.45,-26.214 0.97,10.356 10.357,21.684 29.45,26.214 z m 12.297,14.239 c -10.355,-10.68 -30.42,-10.68 -37.54,-8.414 1.942,6.15 25.565,19.74 37.54,8.414 z" id="path8" />
      <path d="m 400.907,428.285 c -14.563,-3.884 -23.95,-7.12 -32.688,1.941 6.15,7.767 29.775,5.501 32.688,-1.941 z m 20.71,9.385 c -13.914,-7.444 -30.743,3.56 -33.332,10.032 15.534,6.474 33.655,-8.412 33.332,-10.031 z m 19.096,10.68 c -12.622,-4.854 -27.185,1.62 -33.01,8.738 6.796,3.235 24.596,6.797 33.01,-8.737 z m 17.474,5.502 c -14.563,-1.618 -28.537,9.403 -31.582,15.704 18.638,1.771 25.757,-3.73 31.582,-15.704 z" id="path10" />
   </g>
</svg>
