<svg xmlns="http://www.w3.org/2000/svg" x="0px" y="0px" width="480" height="480" viewBox="0 0 480 480">
   <g id="g542" transform="matrix(0.6,0,0,1,4.6344432e-6,0)">
      <rect style="fill:#00b140" width="800" height="480" id="rect538" x="0" y="0" />
      <rect style="fill:#ffffff" width="800" height="240" id="rect540" x="0" y="0" />
   </g>
   <g id="g770" transform="matrix(0.74999049,0,0,1.0000004,-59.989895,-6.5401654e-5)">
      <g id="g766">
         <g id="g548">
            <path style="fill:#c8102e;stroke:#000000;stroke-width:1.15651" d="m 246.6631,113.81639 c -25.98032,3.93731 -91.82033,10.123 -117.50864,5.90574 l 5.01973,12.09182 c 42.51511,-3.93727 83.25931,9.84267 121.05237,-4.49936 z" id="path544" />
            <path style="fill:#c8102e;stroke:#000000;stroke-width:1.15651" d="M 145.985,143.34332 C 129.74458,138.564 102.87788,110.72379 98.45018,93.8508 c 12.69485,8.71618 43.10522,19.96559 54.02966,18.84141 -3.54367,2.531 -12.40143,9.27871 -19.19206,10.123 3.2498,6.1879 9.44792,14.06028 12.69722,20.52811 z" id="path546" />
         </g>
         <g id="g554">
            <path style="fill:#c8102e;stroke:#000000;stroke-width:1.15651" d="m 198.2419,134.90656 v 0 c 4.72584,6.46789 29.52588,3.79649 42.0724,-4.07587 l -3.39534,-5.48452 -2.509,4.64025 -3.98545,-4.35809 -1.03239,6.88861 -6.93848,-5.0615 -1.18267,6.047 -4.42769,-5.34361 -1.62253,6.60914 -6.49674,-5.06375 -2.50892,6.89133 c -1.95954,-2.32472 -3.05521,-5.25536 -3.10143,-8.29541 -2.50885,0.98286 -4.57551,4.2168 -4.87176,6.60642 z" id="path550" />
            <path style="fill:#c8102e;stroke:#000000;stroke-width:1.15651" d="m 200.30856,113.9577 c 0,1.68626 2.06667,6.60914 5.9066,8.01323 0.14789,-2.10753 -2.51129,-7.02992 -0.88638,-9.13741 l 3.39533,3.09261 1.03428,-5.90574 4.57607,3.23391 0.44177,-6.88861 4.724,3.09262 v -7.592 c -7.67709,0.70069 -17.125,9.56042 -19.19167,12.09139 z" id="path552" />
         </g>
         <path style="fill:#c8102e;stroke:#000000;stroke-width:1.15651" d="m 679.42084,190.58701 c -1.99274,-4.49892 -8.19318,-9.98162 -13.65515,-13.35685 2.13159,-4.99286 5.45721,-12.89367 8.77862,-21.0744 -8.26715,1.68851 -25.45935,2.93634 -35.49933,1.81177 18.89533,-17.99716 58.45923,-55.11836 71.45038,-71.991349 -4.724,23.059099 -1.1803,74.802229 8.26721,92.799389 -10.03997,-3.93686 -21.6427,-12.08915 -28.13702,-21.08799 -3.83051,12.9185 -8.52887,26.996 -11.13019,32.75859" id="path556" />
         <path style="fill:#c8102e;stroke:#000000;stroke-width:1.15651" d="m 310.73273,91.881912 c 1.18026,5.906197 1.47418,10.405148 5.9042,12.091858 4.42771,1.68852 14.17139,5.06149 20.37186,15.18628 -7.38077,-1.96843 -17.715,-4.78113 -18.60144,1.96888 -0.84232,6.42359 2.11548,6.234 7.08688,7.30984 6.49484,1.40634 12.69531,8.99879 12.99161,19.124 -5.3165,-3.09306 -12.69727,-5.62399 -17.4212,-5.62399 -4.72394,0 -6.05262,0.84245 -7.23288,6.46601 -1.94864,9.27644 1.62487,9.843 6.05258,10.40515 4.42959,0.56199 13.8775,4.78111 14.46762,20.24774 -5.0202,-4.219 -15.0881,-6.56941 -21.2587,-7.592 -3.39535,-0.56207 -3.98547,1.12418 -4.42721,7.02994 -0.44464,5.90575 0.29388,7.87457 6.19809,9.56088 5.90658,1.68851 12.6972,5.90575 14.46765,14.90456 -5.61035,-2.53101 -14.46765,-1.68671 -17.12488,-0.56255 -2.65686,1.12464 -4.09641,7.40961 1.51401,19.501 12.0748,-3.89437 24.53491,-6.47312 37.16354,-7.69138 27.90573,-2.79774 21.25873,-21.37009 21.25873,-50.61711 0,-29.24657 61.40994,-61.86611 154.70917,-113.609231 -22.439,54.554001 8.26764,49.492515 25.39019,43.306862 17.12494,-6.18792 57.279,-21.934479 88.57526,-34.870602 -43.10706,27.558002 -64.95599,56.805061 -27.16302,69.740741 -48.42121,14.62237 -70.86023,54.554 -44.28742,79.86374 -18.12036,-6.11301 -43.23224,5.42041 -53.74951,21.48254 18.89532,-1.689 55.52002,2.70253 77.95898,8.88818 21.36725,5.8904 56.64002,-1.00723 59.96375,-19.15699 0.1756,-0.91547 0.26544,-1.84533 0.26831,-2.77747 0,-6.327 -1.62915,-11.10408 -4.12433,-14.58501 -5.48755,-7.66012 -15.10425,-9.31799 -20.38129,-9.31799 -7.67706,0 -15.64843,3.09261 -15.64843,8.43626 0,5.34366 4.724,7.59246 14.17187,7.59246 5.16571,0 13.13001,0.85508 21.85785,-6.71079 2.49518,3.48088 4.12433,8.258 4.12433,14.58501 -0.008,0.91945 -0.10156,1.83617 -0.28015,2.73814 -8.26062,4.45954 -17.49719,6.80358 -26.88471,6.82274 -18.89581,0 -36.60852,-7.3121 -36.60852,-26.996 0,-19.6839 21.25635,-30.93329 38.38135,-30.93329 23.61926,0 56.68646,8.99881 56.68646,44.99315 0,45.55792 -62.7135,66.86389 -99.91638,66.86389 6.23743,4.98428 13.26178,9.62686 20.79089,12.43774 26.34815,9.84305 49.60199,21.93448 57.86915,40.49601 -10.03803,0 -26.57282,-7.87418 -34.24982,-15.74881 21.25867,24.74762 -4.5249,70.26986 -1.77045,85.48953 2.95075,16.30865 23.02912,6.18561 23.02912,18.84143 0,11.24716 -11.8108,9.27872 -16.23853,4.21722 -4.43005,-5.06149 -18.62701,-9.31393 -25.98267,-4.21722 -6.49438,4.49939 -16.53192,6.7482 -20.96197,2.24881 -4.42767,-4.49942 -20.6662,-2.81314 -27.45685,3.37476 -6.79065,6.18567 -16.27551,6.66876 -19.19153,1.9689 -3.12231,-5.03305 -2.32409,-11.1528 10.30628,-13.27112 -5.61035,-5.62582 -22.70728,3.99014 -25.65845,-6.69492 -2.12262,-7.67825 2.36102,-11.24942 17.12256,-10.12524 -1.4765,-3.65469 -12.39862,-5.3414 -10.92444,-12.93567 1.4765,-7.59247 10.01007,-12.29233 20.07843,-1.12417 26.86621,29.80865 39.26721,13.21783 48.41882,0.28216 -2.95117,-6.75046 0.29627,-11.24942 5.90662,-15.46664 -2.95306,-4.78156 -1.18262,-11.52933 0.88397,-16.02878 -4.42767,-2.53101 -7.08453,-13.78034 -2.36053,-17.71719 -3.83991,0 -9.74414,-4.21949 -9.74414,-11.52936 -5.26703,3.20193 -12.02045,2.51294 -16.53241,-1.68665 -5.61029,3.09305 -20.37189,3.65509 -26.8686,-3.09488 -8.85778,3.37479 -24.50616,2.53052 -28.63714,-3.93731 -7.79553,1.9707 -22.14511,-4.49942 -25.09628,-11.52933 -4.5542,-0.33069 -8.9769,-1.67514 -12.94465,-3.935 -11.80847,8.43671 -27.79956,24.74536 -11.85726,37.11899 15.94464,12.37356 49.01135,2.24835 49.60199,33.18161 -7.67749,-6.18567 -21.84888,-4.49939 -26.57282,-10.685 -15.94226,22.49652 -38.97144,43.02469 -72.92499,51.46094 5.01789,3.09305 14.17188,3.37524 17.71317,3.09305 7.36227,-0.5842 13.58124,5.34366 7.97326,12.37356 -5.61035,7.03217 -17.1249,1.12464 -23.91549,-4.77929 -9.77216,-8.50037 -16.23856,-3.65696 -18.89585,-1.68851 -2.6568,1.96844 -6.2005,3.09531 -10.92392,-1.40634 -4.72399,-4.49939 -9.15399,-1.40409 -11.51461,1.40634 -3.83756,4.56982 -12.69532,-5.90576 -26.8667,6.46783 -6.81385,5.95002 -23.02915,-1.68625 -16.53479,-10.40515 -6.79062,1.689 -18.80054,-7.70666 -8.8573,-16.87073 9.15359,-8.43624 26.57235,10.9672 40.7442,5.3414 -3.18485,-3.8601 -9.82285,-11.01107 -23.61975,-12.6535 -7.08689,-0.84427 -8.3411,-8.69452 -5.01975,-14.34247 4.13333,-7.02994 16.83057,-2.24835 25.39206,8.71891 6.74417,8.63943 15.64838,8.71664 24.79956,7.0299 6.4299,-4.0827 16.38691,-4.21948 20.81653,-2.81268 0,-4.21722 6.93659,-7.87463 12.25067,-7.87463 -0.29388,-5.62357 1.47657,-10.68506 10.04041,-12.0914 0.71292,-0.11695 1.45093,-0.23166 2.21264,-0.29978 -5.96484,0.27265 -11.74661,-2.09778 -15.80337,-6.47912 -11.827,2.8858 -24.92944,-2.67591 -26.85483,-13.31266 -18.6944,-1.30301 -20.55301,-20.1665 -15.94699,-26.30801 0.37518,-0.50748 0.79666,-0.97904 1.259,-1.4086 -5.5639,4.18387 -12.67401,6.11935 -21.46682,3.07278 -8.26514,11.23566 -22.65027,16.13971 -36.05738,12.29233 -3.7171,5.61807 -9.37909,9.66449 -15.89819,11.36185 0.55081,6.81592 -0.9191,14.53839 -9.91528,23.61215 2.36053,-12.37399 -14.17185,-16.31088 -10.62818,-36.55685 -1.18265,14.62237 -45.7644,38.80746 -52.85129,70.86486 6.49674,2.81269 13.58361,4.77936 18.01131,3.93686 11.13725,-2.12054 14.76201,8.99884 11.51457,13.49826 -3.24743,4.49942 -12.401,6.74775 -16.23852,2.81089 -3.83756,-3.93506 -11.81082,1.40634 -15.64838,-5.90393 -3.8371,-7.31211 -14.46763,-4.78113 -18.89532,0 -4.42771,4.77929 -19.19159,-6.18793 -29.81977,4.77929 -3.97644,4.10251 -17.41879,8.43668 -25.39207,6.18793 -7.97138,-2.25061 -12.69533,-10.12479 -10.038,-14.34201 -5.31408,-4.78159 -5.388,-10.63675 -0.29388,-15.74881 -1.92114,-7.17123 4.33952,-21.34171 14.90988,-15.74655 6.64273,3.51382 30.18761,20.1069 50.70783,1.12417 17.79185,-16.66351 7.42721,-30.0159 18.82139,-31.7771 -1.386,-6.76583 2.95354,-15.18447 7.67749,-16.87344 -1.37341,-2.80572 -1.62268,-6.03024 -0.69679,-9.0137 -2.68311,-0.20773 -5.32446,-0.78647 -7.84862,-1.71967 -8.84826,2.5058 -17.98582,3.84568 -27.181,3.98563 0,6.74774 -8.26524,23.05862 -15.35212,30.93329 -2.36101,-61.86609 -61.41042,-68.05448 -69.38369,-117.26483 -0.29388,7.31028 -8.26716,14.62237 -9.15162,20.80804 -0.88639,6.18787 -4.724,10.96722 -11.810863,8.1568 -7.084511,-2.8132 -8.857292,-14.62463 -1.770408,-16.31091 7.086881,-1.68851 5.758241,-12.93618 10.185931,-14.34246 4.42769,-1.40628 5.1662,-5.90574 3.39534,-11.52932 -1.77278,-5.62358 0.88446,-12.37358 2.65725,-16.59087 1.7704,-4.21944 -0.88639,-11.24936 -7.08689,-13.77988 -6.19859,-2.531 -8.265256,-8.71661 -5.90423,-14.06027 -6.494838,-4.4994 -4.642886,-14.22328 4.13334,-16.02873 10.92444,-2.2506 10.62819,14.90225 16.82866,16.873 -0.884,-3.37482 0.29626,-9.84306 2.95354,-14.0621 -3.54367,-7.31255 0.88639,-13.21601 7.97089,-13.21601 12.401,0 8.26718,19.68387 5.31412,25.87174 4.13377,-5.62576 10.63052,-12.09363 15.64835,-7.592 5.0202,4.49669 4.20065,13.89456 -1.18076,17.99491 -4.42959,3.37478 -13.58121,8.71844 -10.92399,14.62419 5.31408,8.99879 8.561,19.68387 9.15354,33.46425 7.38076,5.34365 12.10471,11.52931 12.10471,16.5908 4.86993,0.28217 14.19937,4.13101 15.5,9.56272 5.90427,-0.56437 14.72266,0.56433 17.27094,5.76489 1.92112,-0.98557 7.04275,-1.31381 10.14419,-1.03388 0.0104,-4.39261 1.53764,-8.64682 4.32341,-12.04309 -10.03757,-10.68733 -9.74368,-27.558 0.59062,-34.30806 -2.94215,-7.00599 -1.77089,-19.966 7.97089,-26.716 -0.2104,-7.0322 1.7728,-16.30869 11.51459,-22.21439 -1.47655,-7.59425 3.54367,-17.99716 9.74415,-18.55973 -1.477,-7.312 -0.36119,-16.33701 8.19985,-20.55654 -2.0158,-2.11555 -3.06414,-4.97226 -2.89524,-7.88953 -15.0189,3.09261 -20.888,11.84672 -25.67694,20.00985 -0.59013,-3.37523 -1.47653,-7.87418 -3.54368,-11.24941 0,8.71663 -6.79062,11.81149 -7.08451,23.90291 -5.0202,-5.06152 -6.79062,-13.21783 -6.49673,-18.84142 0.23605,-4.50166 -7.67464,-8.71664 -5.31409,-16.59086 11.81084,10.4052 35.72637,-12.37354 56.3926,-5.06143 -20.37235,-40.775913 -35.13387,-21.09253 -45.46816,-14.06031 -10.33426,7.03038 -17.715,-3.37478 -16.53239,-10.12484 -13.87751,-3.093 -30.41228,-2.53092 -48.42122,0.84427 13.285,-16.593007 44.58174,-23.903317 67.61091,-22.216603 10.03757,-17.715439 22.14464,-15.184471 33.9531,-13.4982 7.7211,1.104714 16.73858,1.128693 25.68643,0.698891 5.61035,-14.90456 38.38132,-16.44545 41.63058,-28.257 2.95307,2.248798 1.15943,10.7117 -1.79364,18.0215 8.53592,-2.433449 15.86594,-5.03254 18.32605,-10.146862 1.47654,4.779319 -0.884,17.714996 -4.13382,21.652313 3.36759,-0.897942 6.85239,-1.277176 10.33429,-1.124634 -10.33429,5.623581 -23.32299,14.06028 -25.38967,15.466644 -2.06717,1.40635 -3.24982,4.217232 2.06668,7.029923 -5.90662,1.124641 -22.439,6.750458 -29.22968,2.25106" id="path558" />
         <g id="g592">
            <path style="fill:#c8102e;stroke:#000000;stroke-width:1.15651" d="m 86.345482,167.94962 c 7.822998,-5.34366 18.520398,-1.39325 20.814108,6.46783 1.47653,5.06149 -7.491667,8.82001 -8.267149,4.07819 -1.032395,-6.32698 -5.314095,-10.26384 -12.546959,-10.54602 z" id="path560" />
            <path style="fill:#c8102e;stroke:#000000;stroke-width:1.15651" d="m 117.02652,151.60126 c 9.10519,-2.9829 18.16394,3.72099 17.99519,11.87967 -0.10899,5.25111 -9.83232,6.40191 -9.14688,1.64924 0.91386,-6.34459 -2.00223,-11.28463 -8.84831,-13.52891 z" id="path562" />
            <path style="fill:#c8102e;stroke:#000000;stroke-width:1.15651" d="m 150.88719,165.99654 c 8.68428,3.95672 10.20252,14.78761 4.07363,20.4902 -3.94611,3.67049 -11.72269,-2.0059 -7.73301,-4.93779 5.32363,-3.90842 6.88359,-9.38029 3.65938,-15.55241 z" id="path564" />
            <path style="fill:#c8102e;stroke:#000000;stroke-width:1.15651" d="m 81.732918,279.65857 c 7.577469,5.65478 18.441712,2.14319 21.084772,-5.61899 1.70121,-4.99737 -7.094004,-9.11529 -8.077555,-4.40866 -1.314415,6.27817 -5.767708,10.03897 -13.007217,10.02765 z" id="path566" />
            <path style="fill:#c8102e;stroke:#000000;stroke-width:1.15651" d="m 135.05869,393.37845 c 3.173,-8.65708 14.31027,-11.28919 20.93454,-6.11527 4.26318,3.33329 -0.80347,11.32035 -4.30069,7.86567 -4.66803,-4.60959 -10.54714,-5.48456 -16.63385,-1.7504 z" id="path568" />
            <path style="fill:#c8102e;stroke:#000000;stroke-width:1.15651" d="m 125.097,416.66193 c 0.52757,-9.155 13.41016,-14.90863 21.28148,-11.68781 5.06906,2.07452 2.52788,11.08823 -1.83962,8.69226 -5.82557,-3.19418 -14.68098,-2.20004 -19.44186,2.99555 z" id="path570" />
            <path style="fill:#c8102e;stroke:#000000;stroke-width:1.15651" d="m 139.09721,438.26593 c -3.30288,-8.61279 3.55979,-17.36914 12.12795,-17.36237 5.51553,0.005 6.90864,9.24125 1.90506,8.67917 -6.67499,-0.74994 -11.8066,2.12281 -14.03301,8.6832 z" id="path572" />
            <path style="fill:#c8102e;stroke:#000000;stroke-width:1.15651" d="m 277.95941,430.57684 c 1.14093,-9.10446 -7.65143,-16.12585 -15.98825,-14.24771 -5.36719,1.21045 -4.49737,10.50452 0.23599,8.86432 6.31858,-2.18921 12.00522,-0.51602 15.75226,5.38339 z" id="path574" />
            <path style="fill:#c8102e;stroke:#000000;stroke-width:1.15651" d="m 331.22733,433.48434 c -1.97663,-8.97445 6.13128,-16.70547 14.60934,-15.53256 5.45959,0.754 5.45251,10.08551 0.58301,8.84891 -6.49433,-1.65149 -12.00275,0.49121 -15.19235,6.68365 z" id="path576" />
            <path style="fill:#c8102e;stroke:#000000;stroke-width:1.15651" d="m 464.05588,431.29099 c 0.738,-9.14414 -8.35532,-15.80835 -16.60208,-13.59702 -5.30936,1.42401 -4.03144,10.67599 0.62759,8.84848 6.21661,-2.44022 11.97055,-0.9964 15.97449,4.74854 z" id="path578" />
            <path style="fill:#c8102e;stroke:#000000;stroke-width:1.15651" d="m 315.45666,414.44199 c -1.41198,-9.06873 8.03583,-16.87476 16.42576,-15.22373 5.40225,1.06461 3.94137,10.92529 -0.84232,9.4151 -6.38104,-2.01721 -12.01465,-0.18963 -15.58344,5.80863 z" id="path580" />
            <path style="fill:#c8102e;stroke:#000000;stroke-width:1.15651" d="m 327.823,388.34991 c 0.52756,-9.15499 11.43115,-14.99258 19.30249,-11.7695 5.06665,2.07453 1.55331,11.45664 -2.8118,9.06064 -5.82553,-3.19687 -11.72968,-2.48446 -16.49069,2.70886 z" id="path582" />
            <path style="fill:#c8102e;stroke:#000000;stroke-width:1.15651" d="m 531.10889,438.26367 c -1.97663,-8.97442 6.13079,-16.7055 14.60888,-15.53259 5.46009,0.75626 5.45301,10.0878 0.5835,8.85077 -6.49481,-1.65106 -12.0033,0.49164 -15.19238,6.68182 z" id="path584" />
            <path style="fill:#c8102e;stroke:#000000;stroke-width:1.15651" d="m 663.03918,433.96924 c 2.04346,-8.96088 -6.00848,-16.74701 -14.4956,-15.62961 -5.46246,0.71875 -5.52454,10.05029 -0.64801,8.84439 6.50818,-1.60681 12.00287,0.57111 15.14361,6.78522 z" id="path586" />
            <path style="fill:#c8102e;stroke:#000000;stroke-width:1.15651" d="m 514.11572,417.46466 c -1.39074,-9.0715 7.2049,-16.31091 15.59058,-14.64001 5.39941,1.07586 4.78418,10.3898 0.007,8.86651 -6.37634,-2.0303 -12.01422,-0.21615 -15.59723,5.7735 z" id="path588" />
            <path style="fill:#c8102e;stroke:#000000;stroke-width:1.15651" d="m 519.0293,392.70401 c 0.17822,-9.16855 9.89679,-14.97723 17.88427,-12.0278 5.14252,1.8985 2.94642,10.99167 -1.50921,8.7496 -5.94361,-2.9938 -11.81513,-2.07635 -16.37506,3.2782 z" id="path590" />
         </g>
         <g id="g764">
            <path style="fill:none;stroke:#000000;stroke-width:1.15651" d="m 552.24249,93.288712 c -22.43902,7.312088 -109.24151,39.931628 -125.18371,44.993118 -15.9422,5.06149 -24.20948,6.18793 -33.65735,26.996" id="path594" />
            <path style="fill:none;stroke:#000000;stroke-width:1.15651" d="m 510.3175,69.10318 c -56.686,34.87059 -102.74429,65.24133 -115.73587,93.92578 -12.99108,28.68273 -12.1047,46.1178 -43.69726,51.17925" id="path596" />
            <path style="fill:none;stroke:#000000;stroke-width:1.15651" d="m 259.95047,268.202 c 14.17184,-15.74836 43.69537,-34.87015 72.0386,-35.99431 -5.52523,8.55472 -10.26837,17.5899 -14.17184,26.99598" id="path598" />
            <path style="fill:none;stroke:#000000;stroke-width:1.15651" d="m 317.22708,269.88864 c 7.08688,-8.99875 24.79959,-28.12009 36.02023,-35.99472 -5.31408,15.18672 -14.17138,51.181 -9.44741,75.92639 2.95068,-23.62072 15.9418,-60.17758 29.52349,-80.98788 10.03995,23.0591 23.6193,55.68045 23.6193,76.49075 2.95306,-24.74716 -2.95117,-67.49194 -11.80844,-86.05118 24.20941,11.80924 54.32544,45.55521 67.31656,66.36551 -8.8573,-29.24701 -38.9733,-64.67926 -54.91791,-75.92865 39.56387,6.75 96.84286,30.93508 118.09875,48.93268 -34.83764,-30.9333 -77.35464,-55.11838 -107.46829,-66.36778 47.23856,-3.93511 135.81387,6.18793 161.20401,15.74881 -37.20099,-20.24826 -113.96545,-30.93328 -160.02374,-28.12059 48.42126,-19.68572 134.6336,-42.18224 204.31116,-51.74314 -53.14515,2.81084 -121.64246,16.3109 -191.91016,31.49538 31.29629,-20.24821 128.13684,-58.49133 151.16601,-65.24134" id="path600" />
            <path style="fill:none;stroke:#000000;stroke-width:1.15651" d="m 274.12231,79.790451 c 4.2168,-13.272873 21.42273,-16.795731 35.4069,-20.785919" id="path602" />
            <path style="fill:none;stroke:#000000;stroke-width:1.15651" d="m 297.44534,89.63356 c -11.80844,-0.844253 -13.90783,-4.841156 -7.38122,-9.280998 4.13382,-2.812691 12.69531,-7.312103 18.60199,-7.874184 -1.47699,-0.279922 -5.61039,-1.406349 -7.67752,-1.686256 6.2005,-2.530998 16.53479,-6.18792 20.07608,-9.563149" id="path604" />
            <path style="fill:none;stroke:#000000;stroke-width:1.15651" d="m 283.71573,68.261177 c -4.51776,0.390068 -9.26019,0.749451 -14.0235,0.97879" id="path606" />
            <path style="fill:none;stroke:#000000;stroke-width:1.15651" d="m 253.15987,134.34451 c -2.88091,0.14362 -5.74677,0.50554 -8.57294,1.08264" id="path608" />
            <path style="fill:none;stroke:#000000;stroke-width:1.15651" d="m 205.13869,277.71454 c -0.11443,8.08859 2.79605,15.92837 8.16099,21.98279 4.724,5.06149 33.6597,6.75 34.84,-2.81269" id="path610" />
            <path style="fill:none;stroke:#000000;stroke-width:1.15651" d="m 209.4621,265.67145 c 10.03799,10.68506 42.51509,4.21719 42.51509,-3.65515" id="path612" />
            <path style="fill:none;stroke:#000000;stroke-width:1.15651" d="m 210.05272,231.36339 c 3.5432,8.43626 41.33436,16.02872 41.92447,6.18565" id="path614" />
            <path style="fill:none;stroke:#000000;stroke-width:1.15651" d="m 218.02361,204.64734 c 0.29626,9.84306 34.71247,16.23595 35.72636,8.99879" id="path616" />
            <path style="fill:none;stroke:#000000;stroke-width:1.15651" d="m 229.53819,182.433 c 1.47653,7.59199 24.21179,14.90455 27.45922,11.52931" id="path618" />
            <path style="fill:none;stroke:#000000;stroke-width:1.15651" d="m 239.28233,163.87321 c 1.07601,5.33289 17.41881,10.12301 23.02916,8.15459" id="path620" />
            <path style="fill:none;stroke:#000000;stroke-width:1.15651" d="m 247.48219,143.31668 c 3.34934,3.87322 9.84844,7.47778 21.02977,9.30718" id="path622" />
            <path style="fill:none;stroke:#000000;stroke-width:1.15651" d="m 190.86301,103.41164 c 0.29388,-5.905704 6.19813,-6.748165 5.31408,-12.653904" id="path624" />
            <path style="fill:none;stroke:#000000;stroke-width:1.15651" d="m 252.86359,127.59677 c 2.06666,3.09261 7.38073,9.56088 7.97088,14.342 2.95355,-2.2506 5.31409,-7.03223 6.2005,-9.28057 2.81977,2.345 4.87555,5.47817 5.90421,8.9984 1.1831,-3.37479 3.24978,-9.28053 3.54367,-12.93567 4.22885,0.93768 8.17502,2.86495 11.51456,5.62357 0.59014,-3.65514 -1.18027,-8.43627 -4.13382,-10.40515 3.26364,0.13562 6.50995,-0.54074 9.4479,-1.96843 -2.06668,-2.81089 -5.31408,-6.46783 -8.56152,-8.15454 2.95355,-0.84427 7.08499,-4.21679 8.85776,-5.62363 -2.65729,-1.12417 -7.38077,-3.657 -10.33426,-5.06144 1.77087,-1.68852 3.24737,-5.060998 4.13379,-7.594262" id="path626" />
            <path style="fill:none;stroke:#000000;stroke-width:1.15651" d="m 203.85176,81.900253 c -1.9183,0 -2.8047,4.21724 0.7385,6.889061 2.54829,1.922341 2.50892,9.843056 -2.06667,11.811496" id="path628" />
            <path style="fill:none;stroke:#000000;stroke-width:1.15651" d="m 272.93918,141.65662 c -12.98874,28.68267 -24.94745,83.09762 -20.81412,122.46716" id="path630" />
            <path style="fill:none;stroke:#000000;stroke-width:1.15651" d="m 266.14856,317.97665 c 0,5.90619 9.74417,7.03037 9.44791,-7.0299" id="path632" />
            <path style="fill:none;stroke:#000000;stroke-width:1.15651" d="m 274.71246,317.97665 c 1.18027,5.0615 11.21833,6.1861 9.15119,-8.71844" id="path634" />
            <path style="fill:none;stroke:#000000;stroke-width:1.15651" d="m 270.57864,321.914 c 0.59015,10.96723 7.97089,10.40515 8.56101,0" id="path636" />
            <path style="fill:none;stroke:#000000;stroke-width:1.15651" d="m 284.15991,314.3197 c 2.95114,6.75 11.21829,3.37479 8.85773,-11.52933" id="path638" />
            <path style="fill:none;stroke:#000000;stroke-width:1.15651" d="m 293.31152,309.25821 c 3.24933,5.62582 10.92444,1.12643 11.81082,-8.71665" id="path640" />
            <path style="fill:none;stroke:#000000;stroke-width:1.15651" d="m 254.93027,278.04501 c -5.0662,5.284 -10.87801,17.14658 -3.83947,28.40232 4.13575,6.60684 15.50243,10.26428 16.6827,6.32693" id="path642" />
            <path style="fill:none;stroke:#000000;stroke-width:1.15651" d="m 251.09081,306.44733 c -4.57607,0.7034 -11.30648,10.04577 -7.97138,18.98047 2.3634,6.32699 15.94463,10.12524 18.01131,5.48498" id="path644" />
            <path style="fill:none;stroke:#000000;stroke-width:1.15651" d="m 389.85818,314.3197 c 14.76151,1.68851 34.24936,-7.87237 35.43012,-26.996" id="path646" />
            <path style="fill:none;stroke:#000000;stroke-width:1.15651" d="m 423.51501,296.32251 c 8.26761,5.06152 25.39255,6.75 32.47709,-6.18607" id="path648" />
            <path style="fill:none;stroke:#000000;stroke-width:1.15651" d="m 431.1925,300.25937 c -7.67749,16.87298 -14.63211,34.79971 1.18027,47.8063 12.99112,10.68732 22.64047,-5.24435 38.38364,10.68732 4.72348,4.77933 -0.88687,13.77768 -48.42169,39.93164" id="path650" />
            <path style="fill:none;stroke:#000000;stroke-width:1.15651" d="m 194.99451,278.74844 c 3.10139,6.32651 2.80514,18.70057 -3.09909,17.01157" id="path652" />
            <path style="fill:none;stroke:#000000;stroke-width:1.15651" d="m 148.34599,418.65067 c 10.038,-14.62238 21.89058,-2.80637 30.40993,-5.34366" id="path654" />
            <path style="fill:#ffffff;stroke:#000000;stroke-width:1.15651" d="m 226.73538,84.429001 c -1.77278,4.078171 2.9417,9.78347 7.38077,10.26609 5.1662,0.562088 12.547,-2.671829 10.92444,-7.874183" id="path656" />
            <path style="fill:none;stroke:#000000;stroke-width:1.15651" d="m 221.56732,84.851997 c 2.65679,-3.51609 33.65923,7.592461 46.05826,-0.28218" id="path658" />
            <path style="fill:none;stroke:#000000;stroke-width:1.15651" d="m 121.18308,189.745 c -1.18026,2.52871 -0.738,9.98211 3.83993,14.0603" id="path660" />
            <path style="fill:none;stroke:#000000;stroke-width:1.15651" d="m 340.2562,416.39963 c 2.363,-2.81043 11.10501,-5.64975 17.56716,-4.07593 6.34836,1.54541 17.71506,-0.56207 25.09586,-3.37524" id="path662" />
            <g id="g686">
               <path style="fill:none;stroke:#000000;stroke-width:1.15651" d="m 272.93918,141.65662 c -2.95069,27.5585 3.69198,69.882 20.66861,88.72342" id="path664" />
               <path style="fill:none;stroke:#000000;stroke-width:1.15651" d="m 264.02411,166.12431 c 0.48581,24.52233 6.79059,53.63701 19.25415,69.66356" id="path666" />
               <path style="fill:none;stroke:#000000;stroke-width:1.15651" d="m 257.20074,192.84889 c 2.45347,18.5575 7.978,37.21831 16.70826,49.33817" id="path668" />
               <path style="fill:none;stroke:#000000;stroke-width:1.15651" d="m 252.92142,221.01558 c 2.9488,11.01327 7.10061,21.12086 12.49154,28.72195" id="path670" />
               <path style="fill:none;stroke:#000000;stroke-width:1.15651" d="m 251.4008,247.66751 c 1.65927,3.54463 3.62718,6.9364 5.881,10.13608" id="path672" />
               <path style="fill:none;stroke:#000000;stroke-width:1.15651" d="m 272.34906,158.81 c -0.884,8.71844 -6.49438,15.46618 -11.51459,19.4035" id="path674" />
               <path style="fill:none;stroke:#000000;stroke-width:1.15651" d="m 272.93918,170.90363 c -0.884,8.71618 -7.0845,16.59074 -15.20377,20.38681" id="path676" />
               <path style="fill:none;stroke:#000000;stroke-width:1.15651" d="m 274.71246,182.995 c -0.88638,8.71661 -9.74414,19.4035 -19.78219,24.18281" id="path678" />
               <path style="fill:none;stroke:#000000;stroke-width:1.15651" d="m 277.073,195.08646 c -0.884,8.71887 -12.39859,21.93443 -24.12171,26.17608" id="path680" />
               <path style="fill:none;stroke:#000000;stroke-width:1.15651" d="m 280.76456,207.17786 c -3.39533,11.81195 -16.97657,25.59187 -28.93337,28.68493" id="path682" />
               <path style="fill:none;stroke:#000000;stroke-width:1.15651" d="m 286.07867,219.272 c -0.88638,8.71619 -19.0437,26.43343 -34.69157,31.49491" id="path684" />
            </g>
            <path style="fill:none;stroke:#000000;stroke-width:1.15651" d="m 177.72356,272.98355 c 1.91877,8.01325 -4.4296,15.32578 -7.67701,13.35684" id="path688" />
            <path style="fill:none;stroke:#000000;stroke-width:1.15651" d="m 211.52925,300.82373 c -30.70616,-6.18787 -53.5367,-16.496 -66.13437,-40.49594 -3.24931,-6.18565 5.31409,-7.87418 4.724,-13.49776" id="path690" />
            <path style="fill:none;stroke:#000000;stroke-width:1.15651" d="m 140.96529,213.36578 c -5.31409,-8.99835 -6.49671,-18.84141 -3.54364,-25.02713" id="path692" />
            <path style="fill:none;stroke:#000000;stroke-width:1.15651" d="m 162.22354,263.42084 c 0,5.06329 -6.34837,11.52932 -8.56341,9.13968" id="path694" />
            <path style="fill:none;stroke:#000000;stroke-width:1.15651" d="m 213.29967,299.69733 c -3.53893,8.18747 3.30525,23.82165 18.32368,29.19827" id="path696" />
            <path style="fill:none;stroke:#000000;stroke-width:1.15651" d="m 243.11943,325.4278 c -1.77222,1.2622 -3.05931,3.09268 -3.64748,5.18743" id="path698" />
            <path style="fill:none;stroke:#000000;stroke-width:1.15651" d="m 255.22655,342.15994 c -2.65918,4.21949 -12.99114,1.12644 -15.0578,-2.531" id="path700" />
            <path style="fill:none;stroke:#000000;stroke-width:1.15651" d="m 213.66986,388.27948 c -12.519,11.72345 -25.27167,12.38486 -40.52188,14.0603 -15.354,1.68851 -19.6338,-4.92062 -25.09581,0.56211" id="path702" />
            <path style="fill:none;stroke:#000000;stroke-width:1.15651" d="m 313.68338,300.25937 c 1.77325,7.87469 1.18076,15.74887 -5.90421,27.56036 -3.91149,6.5166 -0.20571,13.54648 0.46784,21.94351" id="path704" />
            <path style="fill:none;stroke:#000000;stroke-width:1.15651" d="m 381.66925,323.03629 c 6.76785,-5.08814 11.23444,-13.48056 13.50305,-19.96375" id="path706" />
            <path style="fill:none;stroke:#000000;stroke-width:1.15651" d="m 360.20242,326.10907 c 7.70032,-10.03458 8.90198,-23.6174 3.08295,-34.84799" id="path708" />
            <path style="fill:none;stroke:#000000;stroke-width:1.15651" d="m 324.1452,338.4014 c 4.53861,-6.67499 7.25373,-16.18314 7.25373,-28.58109" id="path710" />
            <path style="fill:none;stroke:#000000;stroke-width:1.15651" d="m 232.49126,356.50241 c 1.18075,5.76444 10.33429,8.29535 11.81083,5.48453" id="path712" />
            <path style="fill:none;stroke:#000000;stroke-width:1.15651" d="m 305.71249,288.7301 c 0,5.62357 -5.90423,9.84308 -10.33429,6.46784 0.59015,8.15454 -5.608,10.68731 -10.03756,6.75045 0.88641,11.52933 -9.15164,12.65351 -15.64838,3.6547 -7.38077,34.58841 -32.1808,60.45975 -33.95358,77.33273 -0.59014,3.93732 -16.38642,2.81314 -12.25308,-8.71618" id="path714" />
            <path style="fill:none;stroke:#000000;stroke-width:1.15651" d="m 412.88733,320.50763 c -8.85776,-1.05374 -24.43643,-3.64612 -31.21808,2.52866" id="path716" />
            <path style="fill:none;stroke:#000000;stroke-width:1.15651" d="m 416.43051,346.9415 c -8.18609,3.09259 -14.80087,4.17975 -20.07321,3.81134" id="path718" />
            <path style="fill:none;stroke:#000000;stroke-width:1.15651" d="m 439.01553,370.54462 c 8.1586,-0.30429 16.5737,-5.47147 19.93009,-18.25946" id="path720" />
            <path style="fill:none;stroke:#000000;stroke-width:1.15651" d="m 423.21213,364.06552 c 6.84582,-1.62634 12.65866,-6.12408 15.95129,-12.34253" id="path722" />
            <path style="fill:none;stroke:#000000;stroke-width:1.15651" d="m 463.37283,373.37537 c -5.1401,-1.54764 -15.9906,-3.58924 -24.3573,-2.83075" id="path724" />
            <path style="fill:none;stroke:#000000;stroke-width:1.15651" d="m 434.14557,392.2168 c 3.2474,-1.68851 -2.06668,-9.28101 -7.38312,-9.28101" id="path726" />
            <path style="fill:none;stroke:#000000;stroke-width:1.15651" d="m 372.14313,404.8703 c 7.51819,-3.07065 14.73349,-6.836 21.55212,-11.24716" id="path728" />
            <path style="fill:none;stroke:#000000;stroke-width:1.15651" d="m 414.51178,390.81046 c 4.00864,1.27398 9.89011,6.18566 7.823,7.87417" id="path730" />
            <path style="fill:none;stroke:#000000;stroke-width:1.15651" d="m 452.45078,285.63748 c 4.72399,7.87418 13.57934,12.93567 25.39016,7.87418 0.83093,2.37201 3.63852,4.80594 7.13333,6.75" id="path732" />
            <path style="fill:none;stroke:#000000;stroke-width:1.15651" d="m 517.69873,283.66861 c 5.90662,4.49942 -4.42767,21.09021 -19.77985,20.52814" id="path734" />
            <path style="fill:none;stroke:#000000;stroke-width:1.15651" d="m 600.36743,385.18689 c 2.04816,4.67999 9.74414,4.21677 12.69721,0 3.37207,-4.819 9.44787,-19.68613 5.90423,-49.49478 -3.54321,-29.80686 -33.65735,-33.74372 -68.49731,-40.49417 -34.84003,-6.74774 -43.69727,-17.43506 -50.78177,-37.1185" id="path736" />
            <path style="fill:none;stroke:#000000;stroke-width:1.15651" d="m 606.27399,369.72025 c 2.95117,4.77932 11.21832,3.65515 12.39862,-1.12644" id="path738" />
            <path style="fill:none;stroke:#000000;stroke-width:1.15651" d="m 607.15802,353.69147 c 4.43005,2.53055 12.99109,1.68631 12.69482,-3.93726" id="path740" />
            <path style="fill:none;stroke:#000000;stroke-width:1.15651" d="m 604.79749,335.97427 c 3.83709,0 14.17138,0.56211 13.58123,-3.93731" id="path742" />
            <path style="fill:none;stroke:#000000;stroke-width:1.15651" d="m 595.05334,324.44489 c 3.24744,-2.25101 12.40101,-11.81147 7.38074,-14.62461" id="path744" />
            <path style="fill:none;stroke:#000000;stroke-width:1.15651" d="m 578.52094,322.75824 c 5.60797,-3.09488 11.80847,-19.1236 5.01782,-20.52994" id="path746" />
            <path style="fill:none;stroke:#000000;stroke-width:1.15651" d="m 551.65234,319.66336 c 8.8573,-3.37524 17.125,-20.8103 11.22022,-21.93448" id="path748" />
            <path style="fill:none;stroke:#000000;stroke-width:1.15651" d="m 523.0152,315.72607 c 14.46527,-3.65515 18.89538,-22.21438 13.28497,-23.90292" id="path750" />
            <path style="fill:none;stroke:#000000;stroke-width:1.15651" d="m 542.79456,398.96454 c 15.06726,1.14856 23.32537,8.71884 29.22967,11.81146" id="path752" />
            <path style="fill:none;stroke:#000000;stroke-width:1.15651" d="m 539.25323,246.26744 c 13.72724,-1.265 27.22315,18.73171 45.93366,33.68007" id="path754" />
            <path style="fill:none;stroke:#000000;stroke-width:1.15651" d="m 690.62549,157.68759 c 2.58282,-8.71213 4.74713,-16.89691 5.69848,-21.65455" id="path756" />
            <path style="fill:none;stroke:#000000;stroke-width:1.15651" d="m 551.33051,415.7847 c 3.52398,-0.55686 7.08807,-0.8208 10.6557,-0.78919" id="path758" />
            <path style="fill:none;stroke:#000000;stroke-width:1.15651" d="m 685.10327,129.283 c -1.99512,5.38341 -6.284,16.3398 -10.55902,26.87273" id="path760" />
            <path style="fill:none;stroke:#000000;stroke-width:1.15651" d="m 313.72083,221.89957 c -26.0405,8.55099 -53.00675,24.96975 -70.30518,55.30121 9.44791,2.24881 27.75311,0 36.02026,-2.81269 0.59064,7.31211 0.59064,16.87299 0.59064,23.06092 8.26712,-6.18793 18.30518,-15.18671 25.98218,-17.43506 -0.5925,7.30984 -0.5925,20.24545 -0.5925,25.30923 11.2207,-11.24942 32.47708,-12.37356 38.38364,4.49716 4.72348,-24.74536 43.69488,-25.86953 53.14279,-4.49716 10.63055,-19.68567 37.793,-26.99823 55.50808,-19.68567 7.67511,-20.8103 41.33243,-32.05746 63.18085,-26.996 -7.24191,-9.5343 -5.94787,-20.07623 -0.0138,-29.1364" id="path762" />
         </g>
      </g>
      <path style="stroke:#000000;stroke-width:1.69161;stroke-linejoin:round" d="m 230.2289,85.390778 11.58099,2.039581 c 0,0 -8.15102,10.403252 -11.58099,-2.039581 z" id="path768" />
   </g>
   <path style="fill:#c8102e;fill-opacity:1;stroke:#000000;stroke-width:1px;stroke-linecap:butt;stroke-linejoin:miter;stroke-opacity:1" d="m 309.33699,295.4756 c -7.52342,15.29636 -24.04471,11.00912 -37.70011,12.95942 19.92457,11.54799 40.46038,14.16701 61.55721,-5.15431 -5.12226,-1.39938 -10.46773,-3.63535 -15.35315,-9.76905 -2.83465,0.86205 -5.6693,1.49433 -8.50395,1.96394 z" />
</svg>
