<svg xmlns="http://www.w3.org/2000/svg" width="600" height="600" viewBox="0 0 7920 7920">
	<rect width="7920" height="2640" y="0" fill="#CD1125" />
	<rect width="7920" height="2640" y="2640" fill="#FFF" />
	<rect width="7920" height="2640" y="5280" fill="#000" />
	<path fill="#017B3D"
		d="M 3884,4515 H 1949 a 288,248 0 0 1 -365,215 c 271,-133 254,-268 83,-568 95,-34 110,-43 206,-108 -68,206 176,181 356,181 0,-72 7,-154 -47,-165 70,-25 76,-33 187,-127 v 277 h 1335 v -190 a 40,40 0 0 0 -80,0 v 110 a 30,30 0 0 1 -30,30 H 2574 v -180 l 766,-740 c -5,38 74,140 107,157 -25,4 -53,-1 -71,17 l -627,606 h 695 c 0,-161 150,-161 220,-218 70,57 220,57 220,218 z m 145,0 V 3250 c 71,39 126,84 214,106 -4,50 -49,66 -49,101 v 778 c 98,22 120,-35 167,-64 12,124 91,246 88,344 z m 1322,-845 155,-130 v 680 h 110 v -773 c 54,-45 124,-94 155,-151 v 1219 h -975 c -14,-252 -14,-511 280,-455 v -103 c 0,-24 -36,-5 -36,-27 l 201,-168 v 458 h 110 z m -51,-348 c -19,1 -48,-103 -41,-123 7,-23 33,-23 44,-12 18,17 16,134 -3,135 z m -181,141 c -55,-32 -46,-45 2,-31 83,25 125,4 185,-57 l 45,23 c 59,30 95,17 116,-55 6,-22 24,-16 29,9 19,100 -57,131 -134,103 -42,-14 -49,-14 -70,2 -46,36 -112,42 -173,6 z m 797,1052 V 3250 c 71,39 126,84 214,106 -4,50 -49,66 -49,101 v 778 c 98,22 120,-35 167,-64 12,124 91,246 88,344 z m -3791,140 a 59,59 0 0 1 118,0 59,59 0 0 1 -118,0 z m 2861,-460 a 45,34 0 0 0 90,0 45,34 0 0 0 -90,0 z" />
</svg>
