<?xml version="1.0" encoding="UTF-8" standalone="no"?>
<svg
   xmlns:dc="http://purl.org/dc/elements/1.1/"
   xmlns:cc="http://creativecommons.org/ns#"
   xmlns:rdf="http://www.w3.org/1999/02/22-rdf-syntax-ns#"
   xmlns:svg="http://www.w3.org/2000/svg"
   xmlns="http://www.w3.org/2000/svg"
   xmlns:sodipodi="http://sodipodi.sourceforge.net/DTD/sodipodi-0.dtd"
   xmlns:inkscape="http://www.inkscape.org/namespaces/inkscape"
   version="1.1"
   id="Layer_1"
   x="0px"
   y="0px"
   width="900"
   height="900"
   viewBox="0 0 900 900"
   xml:space="preserve"
   sodipodi:docname="Flag_of_Moldova.svg"
   inkscape:version="1.0.1 (3bc2e813f5, 2020-09-07)"><metadata
   id="metadata313"><rdf:RDF><cc:Work
       rdf:about=""><dc:format>image/svg+xml</dc:format><dc:type
         rdf:resource="http://purl.org/dc/dcmitype/StillImage" /><dc:title></dc:title></cc:Work></rdf:RDF></metadata><defs
   id="defs311" /><sodipodi:namedview
   pagecolor="#ffffff"
   bordercolor="#666666"
   borderopacity="1"
   objecttolerance="10"
   gridtolerance="10"
   guidetolerance="10"
   inkscape:pageopacity="0"
   inkscape:pageshadow="2"
   inkscape:window-width="1920"
   inkscape:window-height="1001"
   id="namedview309"
   showgrid="false"
   inkscape:zoom="0.74222222"
   inkscape:cx="564.40858"
   inkscape:cy="420.21074"
   inkscape:window-x="-9"
   inkscape:window-y="-9"
   inkscape:window-maximized="1"
   inkscape:current-layer="Layer_1"
   fit-margin-top="0"
   fit-margin-left="0"
   fit-margin-right="0"
   fit-margin-bottom="0" />
<g
   id="g8"
   transform="scale(0.5,1)">
	<rect
   style="fill:#cc092f"
   width="1800"
   height="900"
   id="rect2"
   x="0"
   y="0" />
	<rect
   style="fill:#ffd200"
   width="1200"
   height="900"
   id="rect4"
   x="0"
   y="0" />
	<rect
   style="fill:#0046ae"
   width="600"
   height="900"
   id="rect6"
   x="0"
   y="0" />
</g>
<g
   id="g306"
   transform="translate(-450)">
	<g
   id="g120">
		<path
   d="m 851.48999,183.24001 c -2.71692,-0.12285 -5.40363,0.6118 -7.67999,2.1 2.69464,0.7955 4.53418,3.28253 4.50598,6.092 v 7.423 h -7.422 c -2.79339,0.0289 -5.27283,-1.78358 -6.09302,-4.45399 -2.79864,4.73684 -2.79864,10.62115 0,15.358 0.79566,-2.69496 3.28321,-4.53459 6.09302,-4.506 h 7.422 v 35.681 c 0.0216,2.68749 -1.66431,5.09267 -4.198,5.989 3.54102,0.48199 6.58801,5.23399 7.42297,7.83299 0.83698,-2.593 3.88398,-7.351 7.42402,-7.83301 -2.55841,-0.87316 -4.27088,-3.28575 -4.25098,-5.98899 v -35.683 h 7.42401 c 2.79407,-0.0292 5.27399,1.78447 6.09302,4.45599 2.79736,-4.73755 2.79736,-10.62144 0,-15.35899 -0.79645,2.69413 -3.28375,4.53277 -6.09302,4.504 h -7.42401 v -7.42202 c -0.0295,-2.79391 1.78369,-5.27388 4.45502,-6.093 -2.27662,-1.48671 -4.96277,-2.2206 -7.67902,-2.09801 v 0.001 z"
   id="path10" />
		<path
   style="fill:#f5d402"
   d="m 851.48999,184.78 c -1.49579,0.006 -2.98126,0.24791 -4.40198,0.716 1.74304,1.48218 2.75281,3.651 2.76502,5.939 v 7.423 c -0.007,0.10419 -0.0241,0.2074 -0.052,0.308 v 1.177 h -1.17798 c -0.10035,0.0274 -0.20319,0.0449 -0.30701,0.052 h -7.42401 c -2.26105,-0.0148 -4.40601,-1.00352 -5.88599,-2.71299 -0.49487,1.41583 -0.75433,2.90323 -0.768,4.403 0.006,1.4958 0.24792,2.9813 0.716,4.40199 1.482,-1.74246 3.65057,-2.75151 5.93799,-2.763 h 8.95898 c -0.01,0.15401 -0.052,0.30299 -0.052,0.459 v 0.768 c 0.0275,0.10035 0.0449,0.20321 0.052,0.30701 v 35.681 c -0.074,2.17168 -1.08184,4.2057 -2.76501,5.58 1.10547,0.68929 2.09112,1.55432 2.91803,2.56101 0.60272,0.83143 1.11749,1.72322 1.53601,2.66099 0.41937,-0.93734 0.93408,-1.82904 1.53601,-2.66099 0.81641,-0.98323 1.78418,-1.83017 2.867,-2.50901 -1.69244,-1.38896 -2.7008,-3.44252 -2.76501,-5.63099 V 203.772 h 1.229 c 0.10041,-0.0268 0.20325,-0.0436 0.30701,-0.05 h 7.42297 c 2.26075,0.0153 4.4054,1.00351 5.88599,2.71201 0.49493,-1.41552 0.7547,-2.90253 0.76898,-4.402 -0.007,-1.49585 -0.24866,-2.98134 -0.71698,-4.40199 -1.48199,1.74246 -3.65057,2.75151 -5.93799,2.763 h -7.42297 c -0.10388,-0.007 -0.20673,-0.0241 -0.30701,-0.052 h -1.17798 v -1.177 c -0.0276,-0.10065 -0.0451,-0.20385 -0.052,-0.308 v -7.422 c 0.0157,-2.26117 1.00421,-4.4061 2.71302,-5.88699 -1.41571,-0.49394 -2.90265,-0.75336 -4.40198,-0.76801"
   id="path12" />
		<path
   d="m 944.409,313.987 c -4.33692,-2.94183 -8.04383,-6.71878 -10.904,-11.10999 -6.372,-10.22299 -9.06097,-22.77301 -9.06097,-35.527 0,-5.391 6.03998,-11.46001 6.03998,-15.82001 0.0401,-3.52466 -0.16504,-7.04784 -0.61401,-10.54401 2.143,0.29201 5.88702,4.095 5.88702,4.095 0,0 -0.12903,-10.938 -3.58502,-12.849 0,0 1.39801,-1.438 6.45099,-1.587 C 937.203,227.049 930.177,222.659 930.177,222.659 c 0.45239,-0.70441 1.08954,-1.27101 1.84198,-1.638 1.94269,-0.95259 4.01062,-1.62496 6.14203,-1.997 -2.33594,-0.50603 -4.6427,-1.13864 -6.90997,-1.895 -6.5401,-2.18585 -12.93494,-4.78441 -19.146,-7.78 -7.94171,-3.9832 -16.71155,-6.03536 -25.59601,-5.9895 -3.57501,5e-4 -8.84002,0.0985 -11.927,2.1515 -2.82501,1.875 -2.59497,4.314 -3.58398,5.17 -2.33002,2.01601 -6.32099,1.94501 -8.24298,1.94501 -12.44001,0 -12.90101,13.311 -12.90101,13.311 0,0 3.18104,-4.813 8.805,-4.813 9.35101,0 16.43298,5.09399 16.43298,7.013 0,0.77699 -0.96399,0.921 -1.02301,0.921 -6.10797,0 -15.32599,-3.516 -20.22302,-3.686 v 2.40601 c 10.93097,3.80299 22.013,9.18699 22.013,32.91699 0,14.94299 -1.789,30.19 -9.26502,42.18298 -2.88183,4.39069 -6.60522,8.16675 -10.95501,11.10999 l 44.38501,7.99951 z"
   id="path14" />
		<g
   id="eagle_half">
			<path
   d="m 900.02197,303.98801 -44.38299,10.00048 c -2.01898,-0.60998 -11.513,-3.55999 -18.17401,-7.26901 -11.72602,-6.53201 -17.80603,-13.031 -31.73999,-13.669 v -10.598 c 0,-5.66198 2.04901,-10.763 2.04901,-16.177 -5.87403,-1.57501 -22.17798,-21.50999 -37.21802,-30.358 -22.13001,14.334 -39.26502,37.86499 -39.26502,48.68601 0,0 0.66498,232.50997 0,313.51004 0,4.66803 -2.815,11.263 -2.815,11.263 8.07898,-3.41803 22.888,-23.68 26.00598,-31.38202 v 3.68701 c 12.20099,-5.56403 21.13501,-20.18402 25.13599,-27.74701 0.071,1.09302 0.25702,3.83801 0.25702,3.83801 10.90002,-9.55499 24.776,-66.03799 24.776,-66.03799 l 23.12408,22.72549 c 0,0 -8.36297,16.97553 -11.62097,20.0155 1.54621,0.17811 3.10163,0.26362 4.65802,0.25599 -1.52197,2.18798 -13.14697,18.92498 -16.79101,25.23797 -3.40998,5.90601 -5.81598,3.27698 -11.05799,3.27698 -4.34698,0 -14.20001,6.92499 -15.81799,9.72699 -1.75037,2.86615 -2.76959,6.11853 -2.96802,9.47101 0,3.23999 3.43,7.67901 3.43,7.67901 0.12628,-0.78534 0.48223,-1.51568 1.02301,-2.09899 0,0 9.013,11.22802 10.341,12.695 1.034,1.14301 5.64502,1.88599 7.27002,0.41101 4.06598,-3.69702 8.00201,-6.28198 11.62097,-11.62097 1.86298,-2.75098 2.00501,-5.90399 4.146,-8.85797 7.16198,-9.88 21.41497,-28.79901 24.67498,-33.12097 0.21802,1.203 0.40503,2.20502 0.612,3.42999 3.69397,-7.45697 21.45099,-21.70599 21.45099,-21.70599 l 18.57801,8.54999 c 0,0 -34.68702,79.73498 -65.47602,91.99499 0,0 13.39502,5.69098 29.84497,14.23199 2.40003,1.24598 4.87097,2.58399 7.37201,3.943 2.07099,-2.49402 4.25098,-5.26502 6.39899,-8.14099 9.836,-13.15998 19.45502,-28.41199 19.45502,-28.41199 0.66998,3.961 -4.52399,16.19403 -13.31,31.28101 -1.72803,2.96398 -3.53003,6.06402 -5.52899,9.21301 2.229,1.27301 4.44098,2.55902 6.65503,3.89203 16.29498,9.80499 31.59802,21.07702 37.26703,31.432 l 4,-10.00897 -4,-10.00897 v -349.957 l 2,-5 z"
   id="path16" />
			<g
   id="g46">
				<path
   style="fill:#b07f55"
   d="m 900.00201,667.22101 c -5.74902,-6.23602 -17.76898,-13.85498 -31.27801,-20.88599 16.33398,-29.31598 24.42798,-75.65497 20.63,-84.88 0,0 -6.70501,24.03302 -14.89801,37.729 -7.58599,12.68402 -16.92498,26.95001 -25.95398,37.526 -6.78527,-2.93164 -13.72369,-5.49536 -20.78497,-7.67999 27.05798,-20.84302 54.72601,-89.74201 54.72601,-89.74201 l -28.612,-13.26 c 0,0 -10.70397,12.479 -14.17999,14.79602 0,0 -1.48498,-6.206 -2.35498,-8.396 0,0 -4.10101,3.10199 -6.34601,3.17602 0,0 -0.67102,-4.21197 -1.17798,-6.96398 -2.82501,1.88299 -7.52502,1.48498 -7.52502,1.48498 4.12701,-1.95398 9.01001,-13.92499 9.01001,-13.92499 l -27.32202,-36.34298 c 0,0 -9.59699,46.11599 -20.52802,55.59597 V 336.87305 l 8.65198,8.03601 13.10498,-12.23499 v -9.31698 l -11.62097,10.85199 v -28.10502 c 1.75098,-2.64898 2.91199,-4.626 3.78802,-6.194 1.88099,3.279 7.96003,13.32901 15.10102,19.50501 1.17499,-4.77799 8.90802,-9.31799 8.90802,-9.31799 0,0 2.77099,7.50799 7.01202,9.36801 1.49201,-2.62799 10.39398,-8.44602 10.39398,-8.44602 0,0 -7.61602,1.15702 -10.70001,4.04502 -2.64899,-0.59299 -3.328,-11.05802 -3.328,-11.05802 0,0 -11.20697,5.45902 -13.15601,9.36801 -2.13702,-0.578 -5.46399,-8.988 -6.75897,-12.44 2.77087,-0.30884 5.55689,-0.4624 8.34497,-0.45999 3.19599,0 7.28497,1.51401 11.56897,3.53201 4.70697,2.21601 9.63098,5.02201 14.02802,7.01401 5.63202,2.54999 14.15301,3.06799 16.63702,3.17401 -2.98206,2.07089 -6.11291,3.91892 -9.367,5.52899 0,0 13.41101,-0.12399 22.83197,-4.81298 3.42474,-2.06629 6.70831,-4.35801 9.82898,-6.85999 -1.43451,4.18329 -3.6211,8.0694 -6.45203,11.46701 13.836,-1.17099 20.72601,-9.07199 22.67902,-11.72299 1.24432,3.38541 2.9682,6.57461 5.11901,9.47 h 5 v 340 z"
   id="path18" />
				<path
   style="fill:#b07f55"
   d="m 798.047,267.298 0.255,6.348 v 18.68701 c -5.01898,-1.72699 -11.32599,-9.97299 -14.38397,-14.33399 v -2.55999 c 0.0674,-1.97477 0.95843,-3.83112 2.45697,-5.11899 l -3.02002,-1.07401 c -1.4845,1.56751 -2.34082,3.6261 -2.40601,5.784 v 1.48498 l -9.00897,9.676 -8.85602,-13.41299 v -3.27601 c 0,-2.208 1.698,-4.67001 3.12299,-6.34799 l -2.96997,-1.07501 c -1.49902,1.94199 -3.07202,4.55899 -3.07202,7.013 v 2.66101 c -2.08301,2.15601 -10.18701,10.496 -10.18701,10.496 0,0 -4.06598,-8.737 -5.16999,-11.10901 6.20502,-8.595 16.26599,-18.21899 25.74878,-25.12449 0,0 20.56421,18.88051 27.49018,21.28248 z"
   id="path20" />
				<path
   style="fill:#b07f55"
   d="M 745.927,285.42099 V 300.832 l -7.16699,6.65399 V 284.603 c 0.20459,-2.73334 1.04584,-5.38089 2.45648,-7.73099 z"
   id="path22" />
				<path
   style="fill:#b07f55"
   d="m 768.24701,291.35901 v 9.522 l -8.24103,7.73099 v -29.79401 z"
   id="path24" />
				<path
   style="fill:#b07f55"
   d="m 757.086,308.561 -8.24298,-7.67898 v -11.15903 l 8.24298,-8.65201 z"
   id="path26" />
				<path
   style="fill:#b07f55"
   d="m 794.71301,296.991 c -1.914,2.70498 -6.927,9.32101 -12.33697,12.23599 V 283.0665 c 1.24103,2.06451 6.93402,11.2745 12.33697,13.9245 z"
   id="path28" />
				<path
   style="fill:#b07f55"
   d="m 779.45599,284.397 v 24.163 l -8.24298,-7.67899 V 292.332 Z"
   id="path30" />
				<path
   style="fill:#b07f55"
   d="m 745.92603,310.147 v 24.11301 l -7.167,-6.707 V 316.853 Z"
   id="path32" />
				<path
   style="fill:#b07f55"
   d="m 757.08002,317.87799 v 8.651 L 748.836,334.207 v -24.00851 z"
   id="path34" />
				<path
   style="fill:#b07f55"
   d="m 768.23798,310.20001 v 24.01001 l -8.24103,-7.73099 v -8.54904 z"
   id="path36" />
				<path
   style="fill:#b07f55"
   d="m 779.45099,317.92999 v 8.54901 l -8.24298,7.73001 v -24.00949 z"
   id="path38" />
				<path
   style="fill:#b07f55"
   d="m 790.60999,334.26001 -8.24402,-7.73099 v -8.03601 c 2.84301,-1.73498 5.70202,-4.92401 8.24347,-8.29349 z"
   id="path40" />
				<path
   style="fill:#b07f55"
   d="m 769.72498,344.90799 8.703,-8.08899 v 198.62997 c 0,0 0.60699,9.85602 1.02399,16.279 -3.87,3.91198 -18.42902,18.63397 -18.42902,18.63397 V 336.76593 Z"
   id="path42" />
				<path
   style="fill:#b07f55"
   d="m 756.05298,562.94 c 0,6.38501 -11.659,21.27301 -17.30298,24.67499 V 336.875 l 8.59998,8.03601 8.703,-8.08951 z"
   id="path44" />
			</g>
			<g
   id="g58">
				<path
   style="fill:#d10429"
   d="m 828.33502,541.388 6.34802,-4.35199 c 0,0 0.42298,2.09998 0.97199,4.96698 -2.71802,3.716 -18.33099,25.02399 -26.05701,35.42499 -1.92102,2.58398 -3.53399,9.16302 -3.53399,9.16302 0,0 -2.81403,-1.33099 -2.81403,-3.73602 0,-2.362 0.30798,-5.17102 0.30798,-5.17102 -1.51123,1.53925 -3.57788,2.40625 -5.73498,2.40601 0,-2.90302 5.61401,-6.05201 5.836,-10.18598 -4.28101,3.17401 -7.99903,1.54498 -12.95099,3.07202 -5.39301,1.66101 -6.89502,3.92701 -8.54901,3.84003 -0.974,-0.053 -1.85602,-1.73297 -1.48401,-2.76501 0.64398,-1.78699 7.31402,-6.73298 11.97699,-7.62702 1.117,-0.21399 9.90301,1.91199 11.67297,-0.81897 7.29199,-11.25201 19.13001,-29.518 20.27197,-31.27801 0.69928,-0.1316 1.37299,-0.37433 1.99549,-0.719 0,0 -0.0675,5.75098 1.74249,7.78003 z"
   id="path48" />
				<path
   style="fill:#d10429"
   d="m 787.52002,576.45203 c 0.35077,0.38256 0.32709,0.97656 -0.053,1.33001 l -2.86603,2.508 c -0.41095,0.32056 -1.00317,0.25201 -1.33001,-0.15399 -0.35199,-0.38233 -0.32874,-0.9773 0.052,-1.331 l 2.86603,-2.50799 c 0.18261,-0.15973 0.42474,-0.23395 0.66552,-0.20398 0.2583,0.0342 0.49512,0.16192 0.66553,0.35901 z"
   id="path50" />
				<path
   style="fill:#d10429"
   d="m 791.87097,579.47198 c 0.84863,0.89472 0.81128,2.30799 -0.0834,3.15662 l -0.0196,0.0184 -6.96197,6.09101 c -1.05682,0.78479 -2.54968,0.56427 -3.33447,-0.49256 -0.69922,-0.94153 -0.6095,-2.25189 0.21148,-3.08941 l 6.96198,-6.04102 c 0.34711,-0.29333 0.7763,-0.47235 1.229,-0.51251 0.76575,-0.0424 1.50641,0.28003 1.99701,0.8695 z"
   id="path52" />
				<path
   style="fill:#d10429"
   d="m 795.86102,584.18201 c 0.84839,0.89337 0.81195,2.30536 -0.0814,3.15381 l -0.0216,0.0202 -7.01203,6.09198 c -0.97113,0.77838 -2.3894,0.62213 -3.16785,-0.349 l -0.007,-0.009 c -0.85687,-0.92078 -0.81042,-2.36035 0.10401,-3.224 l 6.961,-6.04102 c 0.32837,-0.2915 0.7409,-0.47095 1.17797,-0.51251 0.7804,-0.0441 1.53693,0.27722 2.047,0.86951 h 6e-5 z"
   id="path54" />
				<path
   style="fill:#d10429"
   d="m 798.26398,587.91901 c 0.75854,-0.0635 1.50146,0.24115 1.99701,0.81897 0.85638,0.92096 0.81091,2.35998 -0.10199,3.22497 l -6.96302,6.04199 c -1.05938,0.76789 -2.54071,0.53156 -3.30859,-0.52783 -0.66504,-0.91748 -0.58722,-2.17743 0.18561,-3.00616 l 7.01398,-6.09101 c 0.33129,-0.27838 0.74475,-0.44036 1.177,-0.46099 z"
   id="path56" />
			</g>
		</g>
		<g
   id="eagle_half-2">
			<path
   d="m 899.97803,303.98801 44.38299,10.00048 c 2.01898,-0.60998 11.513,-3.55999 18.17401,-7.26901 11.72602,-6.53201 17.80603,-13.031 31.73999,-13.669 v -10.598 c 0,-5.66198 -2.04901,-10.763 -2.04901,-16.177 5.87403,-1.57501 22.17799,-21.50999 37.21799,-30.358 22.13,14.334 39.265,37.86499 39.265,48.68601 0,0 -0.6651,232.50997 0,313.51004 0,4.66803 2.8149,11.263 2.8149,11.263 -8.079,-3.41803 -22.8879,-23.68 -26.006,-31.38202 v 3.68701 c -12.201,-5.56403 -21.135,-20.18402 -25.1359,-27.74701 -0.071,1.09302 -0.2571,3.83801 -0.2571,3.83801 -10.9,-9.55499 -24.77596,-66.03799 -24.77596,-66.03799 l -23.12396,22.72549 c 0,0 8.36297,16.97553 11.62097,20.0155 -1.54621,0.17811 -3.10163,0.26362 -4.65802,0.25599 1.52197,2.18798 13.14697,18.92498 16.79101,25.23797 3.40998,5.90601 5.81596,3.27698 11.05796,3.27698 4.347,0 14.2,6.92499 15.818,9.72699 1.7503,2.86615 2.7696,6.11853 2.968,9.47101 0,3.23999 -3.43,7.67901 -3.43,7.67901 -0.1263,-0.78534 -0.4823,-1.51568 -1.023,-2.09899 0,0 -9.013,11.22802 -10.341,12.695 -1.034,1.14301 -5.645,1.88599 -7.27,0.41101 -4.06603,-3.69702 -8.00206,-6.28198 -11.62102,-11.62097 -1.86298,-2.75098 -2.00501,-5.90399 -4.146,-8.85797 -7.16199,-9.88 -21.41498,-28.79901 -24.67499,-33.12097 -0.21801,1.203 -0.40502,2.20502 -0.612,3.42999 -3.69396,-7.45697 -21.45098,-21.70599 -21.45098,-21.70599 l -18.57801,8.54999 c 0,0 34.68701,79.73498 65.47602,91.99499 0,0 -13.39502,5.69098 -29.84497,14.23199 -2.40003,1.24598 -4.87098,2.58399 -7.37201,3.943 -2.07099,-2.49402 -4.25098,-5.26502 -6.39899,-8.14099 -9.836,-13.15998 -19.45502,-28.41199 -19.45502,-28.41199 -0.66998,3.961 4.52399,16.19403 13.31,31.28101 1.72803,2.96398 3.53003,6.06402 5.52899,9.21301 -2.229,1.27301 -4.44098,2.55902 -6.65503,3.89203 -16.29498,9.80499 -31.59802,21.07702 -37.26697,31.432 l -4,-10.00897 4,-10.00897 v -349.957 l -2,-5 z"
   id="path61" />
			<g
   id="g91">
				<path
   style="fill:#b07f55"
   d="m 899.99799,667.22101 c 5.74902,-6.23602 17.76898,-13.85498 31.27801,-20.88599 -16.33398,-29.31598 -24.42798,-75.65497 -20.63,-84.88 0,0 6.70501,24.03302 14.89801,37.729 7.58599,12.68402 16.92498,26.95001 25.95398,37.526 6.78527,-2.93164 13.72369,-5.49536 20.78497,-7.67999 -27.05798,-20.84302 -54.72601,-89.74201 -54.72601,-89.74201 l 28.612,-13.26 c 0,0 10.70397,12.479 14.17999,14.79602 0,0 1.48498,-6.206 2.35498,-8.396 0,0 4.10101,3.10199 6.34601,3.17602 0,0 0.67102,-4.21197 1.17798,-6.96398 2.82501,1.88299 7.52502,1.48498 7.52502,1.48498 -4.12701,-1.95398 -9.01001,-13.92499 -9.01001,-13.92499 l 27.32202,-36.34298 c 0,0 9.59696,46.11599 20.52806,55.59597 V 336.87305 l -8.652,8.03601 -13.105,-12.23499 v -9.31698 l 11.621,10.85199 v -28.10502 c -1.751,-2.64898 -2.912,-4.626 -3.7881,-6.194 -1.8809,3.279 -7.95998,13.32901 -15.10097,19.50501 -1.17499,-4.77799 -8.90802,-9.31799 -8.90802,-9.31799 0,0 -2.77099,7.50799 -7.01202,9.36801 -1.49201,-2.62799 -10.39398,-8.44602 -10.39398,-8.44602 0,0 7.61602,1.15702 10.70001,4.04502 2.64899,-0.59299 3.328,-11.05802 3.328,-11.05802 0,0 11.20697,5.45902 13.15601,9.36801 2.13702,-0.578 5.46399,-8.988 6.75897,-12.44 -2.77087,-0.30884 -5.55689,-0.4624 -8.34497,-0.45999 -3.19599,0 -7.28497,1.51401 -11.56897,3.53201 -4.70697,2.21601 -9.63098,5.02201 -14.02802,7.01401 -5.63202,2.54999 -14.15301,3.06799 -16.63702,3.17401 2.98206,2.07089 6.11291,3.91892 9.367,5.52899 0,0 -13.41101,-0.12399 -22.83197,-4.81298 -3.42474,-2.06629 -6.70831,-4.35801 -9.82898,-6.85999 1.43451,4.18329 3.6211,8.0694 6.45203,11.46701 -13.836,-1.17099 -20.72601,-9.07199 -22.67902,-11.72299 -1.24432,3.38541 -2.9682,6.57461 -5.11901,9.47 h -5 v 340 z"
   id="path63" />
				<path
   style="fill:#b07f55"
   d="m 1001.953,267.298 -0.255,6.348 v 18.68701 c 5.019,-1.72699 11.326,-9.97299 14.384,-14.33399 v -2.55999 c -0.067,-1.97477 -0.9585,-3.83112 -2.457,-5.11899 l 3.02,-1.07401 c 1.4845,1.56751 2.3408,3.6261 2.406,5.784 v 1.48498 l 9.0091,9.676 8.8559,-13.41299 v -3.27601 c 0,-2.208 -1.698,-4.67001 -3.123,-6.34799 l 2.9699,-1.07501 c 1.4991,1.94199 3.0721,4.55899 3.0721,7.013 v 2.66101 c 2.083,2.15601 10.187,10.496 10.187,10.496 0,0 4.066,-8.737 5.17,-11.10901 -6.2049,-8.595 -16.266,-18.21899 -25.7488,-25.12449 0,0 -20.5642,18.88051 -27.4901,21.28248 z"
   id="path65" />
				<path
   style="fill:#b07f55"
   d="M 1054.073,285.42099 V 300.832 l 7.167,6.65399 V 284.603 c -0.2046,-2.73331 -1.0458,-5.38086 -2.4564,-7.73099 z"
   id="path67" />
				<path
   style="fill:#b07f55"
   d="m 1031.7531,291.35901 v 9.522 l 8.2409,7.73099 v -29.79401 z"
   id="path69" />
				<path
   style="fill:#b07f55"
   d="m 1042.9139,308.561 8.2431,-7.67898 v -11.15903 l -8.2431,-8.65201 z"
   id="path71" />
				<path
   style="fill:#b07f55"
   d="m 1005.287,296.991 c 1.914,2.70498 6.927,9.32101 12.337,12.23599 V 283.0665 c -1.2411,2.06451 -6.9341,11.2745 -12.337,13.9245 z"
   id="path73" />
				<path
   style="fill:#b07f55"
   d="m 1020.544,284.397 v 24.163 l 8.243,-7.67899 V 292.332 Z"
   id="path75" />
				<path
   style="fill:#b07f55"
   d="m 1054.074,310.147 v 24.11301 l 7.167,-6.707 V 316.853 Z"
   id="path77" />
				<path
   style="fill:#b07f55"
   d="m 1042.92,317.87799 v 8.651 l 8.2441,7.67801 v -24.00851 z"
   id="path79" />
				<path
   style="fill:#b07f55"
   d="m 1031.762,310.20001 v 24.01001 l 8.2409,-7.73099 v -8.54904 z"
   id="path81" />
				<path
   style="fill:#b07f55"
   d="m 1020.549,317.92999 v 8.54901 l 8.243,7.73001 v -24.00949 z"
   id="path83" />
				<path
   style="fill:#b07f55"
   d="m 1009.39,334.26001 8.244,-7.73099 v -8.03601 c -2.843,-1.73498 -5.702,-4.92401 -8.2434,-8.29349 z"
   id="path85" />
				<path
   style="fill:#b07f55"
   d="m 1030.275,344.90799 -8.703,-8.08899 v 198.62997 c 0,0 -0.607,9.85602 -1.024,16.279 3.8701,3.91198 18.4291,18.63397 18.4291,18.63397 V 336.76593 Z"
   id="path87" />
				<path
   style="fill:#b07f55"
   d="m 1043.947,562.94 c 0,6.38501 11.6591,21.27301 17.303,24.67499 V 336.875 l -8.6,8.03601 -8.703,-8.08951 z"
   id="path89" />
			</g>
			<g
   id="g103">
				<path
   style="fill:#d10429"
   d="m 971.66498,541.388 -6.34802,-4.35199 c 0,0 -0.42298,2.09998 -0.97199,4.96698 2.71802,3.716 18.33099,25.02399 26.05701,35.42499 1.92102,2.58398 3.53399,9.16302 3.53399,9.16302 0,0 2.81403,-1.33099 2.81403,-3.73602 0,-2.362 -0.30798,-5.17102 -0.30798,-5.17102 1.51123,1.53925 3.57788,2.40625 5.73498,2.40601 0,-2.90302 -5.61401,-6.05201 -5.836,-10.18598 4.281,3.17401 7.999,1.54498 12.951,3.07202 5.393,1.66101 6.895,3.92701 8.549,3.84003 0.974,-0.053 1.856,-1.73297 1.484,-2.76501 -0.644,-1.78699 -7.314,-6.73298 -11.977,-7.62702 -1.117,-0.21399 -9.90299,1.91199 -11.67295,-0.81897 -7.29199,-11.25201 -19.13001,-29.518 -20.27197,-31.27801 -0.69928,-0.1316 -1.37299,-0.37433 -1.99549,-0.719 0,0 0.0675,5.75098 -1.74249,7.78003 z"
   id="path93" />
				<path
   style="fill:#d10429"
   d="m 1012.48,576.45203 c -0.3508,0.38256 -0.3271,0.97656 0.053,1.33001 l 2.866,2.508 c 0.4109,0.32056 1.0032,0.25201 1.33,-0.15399 0.352,-0.38233 0.3287,-0.9773 -0.052,-1.331 l -2.866,-2.50799 c -0.1826,-0.15973 -0.4248,-0.23395 -0.6656,-0.20398 -0.2583,0.0342 -0.4951,0.16192 -0.6655,0.35901 z"
   id="path95" />
				<path
   style="fill:#d10429"
   d="m 1008.129,579.47198 c -0.8486,0.89472 -0.8113,2.30799 0.083,3.15662 l 0.02,0.0184 6.9619,6.09101 c 1.0569,0.78479 2.5497,0.56427 3.3345,-0.49256 0.6992,-0.94153 0.6095,-2.25189 -0.2115,-3.08941 l -6.962,-6.04102 c -0.3471,-0.29333 -0.7763,-0.47235 -1.229,-0.51251 -0.7657,-0.0424 -1.5064,0.28003 -1.997,0.8695 z"
   id="path97" />
				<path
   style="fill:#d10429"
   d="m 1004.139,584.18201 c -0.8484,0.89337 -0.812,2.30536 0.081,3.15381 l 0.022,0.0202 7.012,6.09198 c 0.9712,0.77838 2.3894,0.62213 3.1679,-0.349 l 0.01,-0.009 c 0.8569,-0.92078 0.8104,-2.36035 -0.104,-3.224 l -6.961,-6.04102 c -0.3284,-0.2915 -0.7409,-0.47095 -1.178,-0.51251 -0.7804,-0.0441 -1.5369,0.27722 -2.047,0.86951 v 0 z"
   id="path99" />
				<path
   style="fill:#d10429"
   d="m 1001.736,587.91901 c -0.7585,-0.0635 -1.5014,0.24115 -1.99699,0.81897 -0.85638,0.92096 -0.81091,2.35998 0.10199,3.22497 l 6.963,6.04199 c 1.0594,0.76789 2.5407,0.53156 3.3086,-0.52783 0.665,-0.91748 0.5872,-2.17743 -0.1856,-3.00616 l -7.014,-6.09101 c -0.3313,-0.27838 -0.7447,-0.44036 -1.177,-0.46099 z"
   id="path101" />
			</g>
		</g>
		<path
   style="fill:#b07f55"
   d="m 889.73401,206.63699 c 11.45801,0 19.51703,5.224 30.35901,10.03301 2.841,1.25999 5.45001,2.281 7.77899,3.071 -1.26398,0.96737 -2.26691,2.23457 -2.91803,3.68699 0,0 4.85901,0.9 7.06403,4.967 0,0 -4.62,0.524 -5.375,3.224 2.58801,0.19501 5.15899,3.457 5.17102,6.60499 l -6.55298,-2.04899 c 1.00848,5.05838 1.53979,10.20028 1.58697,15.358 0,4.086 -5.88598,8.89401 -5.88598,15.819 0,21.73401 5.47497,30.08801 9.36901,36.80701 1.52302,2.62899 2.76099,5.65399 5.32398,7.93499 C 924.43701,306.121 916.099,298.655 916.099,291.72 v -26.26199 h -2.91803 V 291.72 c 0,5.02899 1.22803,7.37201 1.22803,7.37201 1.76098,5.564 5.32098,14.15201 7.526,17.61002 -10.32099,-5.57801 -15.56403,-12.56299 -15.56403,-15.15302 V 265.457 h -2.91803 v 36.603 l 0.56299,2.50799 c -1.25098,1.88001 -2.87701,4.10599 -3.99298,4.86301 -1.11298,-0.75601 -2.69,-2.98599 -3.94299,-4.86301 l 0.56402,-2.50799 v -36.603 h -2.91803 v 36.09201 c 0,2.58899 -5.24298,9.57501 -15.56299,15.15302 2.20502,-3.45902 5.76398,-12.04599 7.52399,-17.60999 0,0 1.229,-2.34201 1.229,-7.37201 v -26.26202 h -2.91803 V 291.72 c 0,6.927 -8.307,14.405 -19.505,20.37399 2.53699,-2.28299 3.75702,-5.32101 5.27197,-7.93499 4.258,-7.348 9.52198,-16.68302 9.52198,-43.258 0,-9.974 -1.47498,-16.755 -4.04401,-21.50101 -0.78101,-1.56599 -1.83301,-5.73399 4.146,-5.73399 3.09698,0 10.18798,5.478 10.18798,5.478 -0.28332,-2.72931 -1.69384,-5.2162 -3.89099,-6.86 -0.90661,-0.71431 -1.48004,-1.76967 -1.586,-2.91901 0.4115,-1.53886 1.40131,-2.85939 2.763,-3.686 0.83301,-0.37801 -12.18298,-2.646 -12.18298,-8.549 0,-1.229 0.77301,-2.048 3.479,-2.048 3.54499,0 9.31202,4.24899 14.43799,4.24899 3.789,0 5.28302,-0.922 9.16303,-0.922 4.742,0 14.63501,8.979 18.01898,8.651 -3.78302,-2.375 -9.89398,-11.365 -19.14502,-11.365 -3.211,0 -6.117,0.71699 -9.11401,0.71699 -3.84101,0 -7.62299,-3.533 -11.77399,-3.533 -2.78198,0 -5.88898,0.155 -6.349,-0.564 -0.80499,-1.255 -0.08,-1.983 0.66602,-3.02 1.40899,-1.957 5.36602,-2.525 9.26703,-2.661 1.16998,-0.041 2.33801,-0.061 3.43249,-0.0505 1.09052,0.0115 2.09949,0.0535 2.9715,0.0535 z"
   id="path106" />
		<path
   style="fill:#cc092f"
   d="m 852.53003,220.69 c 1.82214,-2.94179 5.07526,-4.68803 8.534,-4.58099 2.55603,0 10.992,-0.177 10.992,-0.177 1.12402,2.921 6.24902,7.802 6.24902,12.878 0,0 -5.20202,-9.377 -19.72302,-9.377 -2.08588,-0.0323 -4.15314,0.39663 -6.05401,1.256 z"
   id="path108" />
		<path
   style="fill:#d10429"
   d="m 876.14001,230.60001 c 0,0 -3.09301,3.25799 -3.76501,4.99699 -3.06097,-1.16 -8.39899,-6.661 -8.39899,-6.661 0,0 4.52503,2.642 12.16303,1.66401 z"
   id="path110" />
		<path
   d="m 871.23999,221.97 c 0,0 -3.56799,-1.144 -3.56799,-2.34199 0,-1.52601 1.73297,-1.52601 2.76898,-0.33701 0.49304,0.8094 0.76794,1.73273 0.79797,2.67999 z"
   id="path112" />
		<ellipse
   cx="887.88098"
   cy="223.927"
   rx="7.3726196"
   ry="5.5962677"
   id="ellipse114" />
		<circle
   style="fill:#f5d402"
   cx="887.87299"
   cy="223.927"
   r="5.1206055"
   id="circle116" />
		<circle
   cx="887.875"
   cy="223.92799"
   r="2.3462601"
   id="circle118" />
	</g>
	<g
   id="g246">
		<g
   id="g156">
			<polygon
   points="817.42297,618.81897 801.22198,609.97998 805.15198,591.95203 821.354,600.79102 "
   id="polygon122" />
			<path
   d="m 729.677,418.73001 -5.836,2.663 65.93598,144.41998 h 7.01397 z m 77.76203,170.32004 -4.76001,4.91498 2.96899,6.55298 5.784,-2.66199 z"
   id="path124" />
			<path
   d="m 750.16699,532.59998 c 0,0 5.55402,11.47198 9.77503,13.04498 -2.18299,-0.59497 -9.271,2.00598 -9.271,2.00598 0,0 12.49902,11.16498 23.09998,11.89801 8.98999,0.61902 13.35498,-3.86798 13.35498,-3.86798 l -1.80103,-9.52399 c -3.89941,-4.35925 -8.81097,-7.69275 -14.302,-9.70697 -8.89398,-3.09802 -20.857,-3.84802 -20.857,-3.84802 z"
   id="path126" />
			<path
   d="m 792.03699,512.04999 c 0,0 -7.66901,6.565 -9.76801,14.169 -2.09997,7.60498 1.36798,16.24701 1.36798,16.24701 l 6.44397,12.021 c 0,0 8.93103,-4.75299 12.72998,-11.85999 3.79901,-7.10797 2.40601,-16.69799 2.40601,-16.69799 0,0 -7.07501,2.63397 -7.97498,3.79998 1.49298,-7.88397 -5.20599,-17.67901 -5.20599,-17.67901 z"
   id="path128" />
			<path
   d="m 767.38702,508.98001 c 0,0 -8.72198,2.948 -17.19201,2.43799 -8.068,-0.487 -14.77698,-7.26199 -14.77698,-7.26199 0,0 6.68799,-4.52601 9.98901,-3.92301 -3.63098,-1.32699 -8.89599,-10.423 -8.89599,-10.423 0,0 7.48199,-2.26099 14.11603,0.23999 6.63397,2.50299 12.419,9.76999 12.419,9.76999 l 4.34198,9.16 z"
   id="path130" />
			<path
   d="m 770.38702,466.38 c 0,0 4.362,9.03202 3.32801,12.17099 1.35302,-2.08999 6.474,-5.345 6.474,-5.345 0,0 3.096,14.624 0.13501,23.65601 -2.96003,9.03101 -11.974,12.47 -11.974,12.47 l -9.943,-19.337 c 0,0 -1.47998,-7.16401 1.62,-12.83701 3.10101,-5.673 10.35998,-10.77899 10.35998,-10.77899 z"
   id="path132" />
			<path
   d="m 713.63702,442.47 c 0,0 9.42701,-0.98999 18.05103,2.58301 7.21002,2.99301 9.41998,8.43301 9.41998,8.43301 l 3.55103,9.51999 c 0,0 -10.26099,3.84799 -18.36798,0.90601 -8.10797,-2.94501 -14.06501,-12.67999 -14.06501,-12.67999 0,0 5.66602,-2.14899 7.823,-1.34299 -3.14203,-1.39002 -6.40997,-7.41901 -6.40997,-7.41901 v 10e-4 z"
   id="path134" />
			<path
   d="m 743.28699,424.79999 c 0,0 4.13702,5.31299 4.26098,11.42401 1.10303,-3.24899 6.26801,-6.84 6.26801,-6.84 0,0 5.31201,12.85501 4.146,21.982 -1.16602,9.12799 -8.80903,14.52701 -8.80903,14.52701 l -9.531,-18.09202 c 0,0 -3.10602,-7.415 -2.19098,-13.16699 0.91601,-5.75 5.85602,-9.836 5.85602,-9.836 v 0.002 z"
   id="path136" />
			<path
   d="m 710.63702,390.20001 c 0,0 -1.70898,9.85401 1.19898,15.53 2.59802,5.065 4.25201,6.176 4.25201,6.176 -4.95398,-3.26902 -12.44397,-3.551 -12.44397,-3.551 0,0 2.66602,10.72101 9.03699,15.612 6.37097,4.89099 16.19501,3.74799 16.19501,3.74799 0,0 6.46002,-8.60001 6.01001,-17.86499 -0.44898,-9.26502 -7.80799,-19.19699 -7.80799,-19.19699 0,0 -2.90197,6.01998 -3.15802,10.514 -1.87799,-4.63299 -13.28497,-10.966 -13.28497,-10.966 z"
   id="path138" />
			<path
   d="m 787.63702,555.27002 0.26502,3.53699 c 5.875,0.055 6.75,-0.53003 8.25598,1.32202 1.453,1.63165 3.80041,2.12451 5.78699,1.21503 2.40667,-1.1139 3.46814,-3.95759 2.38,-6.37598 -1.09497,-2.39899 -3.32599,-2.91998 -5.47497,-2.49597 -1.31897,0.26001 -2.18702,1.31299 -3.30603,1.89099 -2.12799,1.10199 -7.909,0.90802 -7.909,0.90802 z"
   id="path140" />
			<path
   d="m 787.12701,552.57001 2.85901,2.09497 c -3.06701,5.01398 -4.02398,5.44598 -3.25097,7.70502 0.61419,2.09704 -0.21119,4.34942 -2.03498,5.55297 -2.2196,1.45087 -5.19348,0.84534 -6.669,-1.35797 -1.45398,-2.20001 -0.71503,-4.36603 0.78302,-5.96502 0.91998,-0.982 2.27002,-1.15998 3.35302,-1.80298 2.06202,-1.22303 4.95899,-6.22803 4.95899,-6.22803 z"
   id="path142" />
			<path
   d="m 767.22699,510.57001 0.26398,3.53698 c 5.87597,0.054 6.75,-0.53002 8.25598,1.32099 1.45325,1.63129 3.80041,2.12408 5.78699,1.21503 2.40753,-1.11261 3.46905,-3.95716 2.37902,-6.375 -1.09497,-2.4 -3.32501,-2.92002 -5.474,-2.49601 -1.32,0.26099 -2.18701,1.31299 -3.30499,1.89099 -2.12903,1.10102 -7.90899,0.90799 -7.90899,0.90799 z"
   id="path144" />
			<path
   d="m 768.41699,511.82001 2.5,2.51703 c -3.80902,4.474 -4.82397,4.75299 -4.41101,7.104 0.2818,2.1676 -0.88428,4.2652 -2.87402,5.16998 -2.41815,1.08814 -5.26166,0.0272 -6.37598,-2.37903 -1.09497,-2.39898 -0.028,-4.42498 1.70099,-5.77099 1.06097,-0.82501 2.42499,-0.79303 3.59302,-1.258 2.22699,-0.88702 5.867,-5.38199 5.867,-5.38199 z"
   id="path146" />
			<path
   d="m 747.44702,468.72 0.26502,3.53699 c 5.87597,0.054 6.75,-0.53 8.25702,1.323 1.45452,1.62994 3.80145,2.12179 5.78802,1.21301 2.40619,-1.11487 3.4671,-3.95856 2.37903,-6.37702 -1.09699,-2.39898 -3.32599,-2.919 -5.47601,-2.49499 -1.32001,0.26099 -2.18702,1.31299 -3.30604,1.89099 -2.12799,1.10199 -7.90802,0.90701 -7.90802,0.90701 z"
   id="path148" />
			<path
   d="m 749.07703,467.98001 2.49902,2.51599 c -3.80902,4.47501 -4.82202,4.754 -4.41101,7.10501 0.28149,2.167 -0.88403,4.26398 -2.87299,5.16901 -2.41815,1.08731 -5.26104,0.0266 -6.37597,-2.379 -1.094,-2.39999 -0.027,-4.42599 1.70099,-5.77099 1.06097,-0.827 2.42401,-0.793 3.59399,-1.26001 2.22699,-0.887 5.86603,-5.38001 5.86603,-5.38001 z"
   id="path150" />
			<path
   d="m 726.37701,424.54001 0.26398,3.53601 c 5.87598,0.055 6.75098,-0.53 8.25598,1.32101 1.45355,1.63129 3.8006,2.12479 5.78803,1.21701 2.40661,-1.1145 3.46795,-3.95828 2.38,-6.37701 -1.09497,-2.39999 -3.32599,-2.92099 -5.47601,-2.496 -1.31799,0.26098 -2.18597,1.31399 -3.30499,1.89099 -2.12799,1.10101 -7.909,0.90799 -7.909,0.90799 h 0.002 z"
   id="path152" />
			<path
   d="m 728.00702,423.79999 2.49798,2.517 c -3.80798,4.475 -4.82299,4.75299 -4.40997,7.10501 0.28101,2.1669 -0.88434,4.26361 -2.87298,5.169 -2.41785,1.08872 -5.26148,0.0276 -6.375,-2.37899 -1.09601,-2.39899 -0.028,-4.42701 1.69897,-5.771 1.06201,-0.82501 2.42499,-0.793 3.59399,-1.26001 2.22602,-0.88599 5.86603,-5.38001 5.86603,-5.38001 z"
   id="path154" />
		</g>
		<g
   id="g182">
			<polygon
   style="fill:#f5d402"
   points="815.09698,613.72699 805.04797,608.245 807.48602,597.06201 817.53497,602.54401 "
   id="polygon158" />
			<path
   style="fill:#f5d402"
   d="m 763.49701,500.09 c -2.10602,0.87399 -5.22998,-8.29502 -7.52399,-13.318 -2.35302,-5.155 -7.13098,-13.1 -5.77398,-13.72 1.48901,-0.67999 3.45098,3.49201 5.859,8.767 2.40802,5.27301 9.41199,17.44901 7.43903,18.26901 z"
   id="path160" />
			<path
   style="fill:#f5d402"
   d="m 741.867,451.79999 c -2.10498,0.87701 -4.40997,-5.12702 -6.703,-10.151 -2.35303,-5.15399 -4.64502,-8.79502 -3.28802,-9.41501 1.48999,-0.67999 3.69,3.837 5.61602,8.05499 1.86603,4.08801 6.34803,10.69 4.37403,11.51199 z"
   id="path162" />
			<path
   style="fill:#f5d402"
   d="m 791.90698,561.28998 c -1.65301,0.44201 -8.86902,-14.66199 -14.703,-27.44202 -5.83301,-12.77899 -10.177,-23.11899 -8.82001,-23.73599 1.48999,-0.681 6.21301,11.39102 12.04901,24.17203 5.83503,12.781 12.71302,26.67297 11.47498,27.00598 z"
   id="path164" />
			<circle
   style="fill:#f5d402"
   cx="799.97198"
   cy="556.98401"
   r="2.605835"
   id="circle166" />
			<circle
   style="fill:#f5d402"
   cx="782.047"
   cy="563.93298"
   r="2.6056519"
   id="circle168" />
			<circle
   style="fill:#f5d402"
   cx="779.55396"
   cy="512.25"
   r="2.6060791"
   id="circle170" />
			<circle
   style="fill:#f5d402"
   cx="761.62097"
   cy="522.23999"
   r="2.6057129"
   id="circle172" />
			<circle
   style="fill:#f5d402"
   cx="759.77795"
   cy="470.414"
   r="2.605896"
   id="circle174" />
			<circle
   style="fill:#f5d402"
   cx="742.27899"
   cy="478.40201"
   r="2.605896"
   id="circle176" />
			<circle
   style="fill:#f5d402"
   cx="738.70801"
   cy="426.23901"
   r="2.6063843"
   id="circle178" />
			<circle
   style="fill:#f5d402"
   cx="721.21198"
   cy="434.22299"
   r="2.6063843"
   id="circle180" />
		</g>
		<g
   id="g214">
			<path
   style="fill:#097754"
   d="m 713.53699,396.19 c 0,0 -0.25501,7.20099 2.12701,11.28501 2.383,4.08599 7.70398,5.71499 7.70398,5.71499 0,0 0.25403,-7.199 -2.12799,-11.28299 -2.383,-4.086 -7.703,-5.71701 -7.703,-5.71701 z"
   id="path184" />
			<path
   style="fill:#097754"
   d="m 708.55701,412.48001 c 0,0 6.255,0.36801 9.86798,3.13599 3.60998,2.768 5.00897,8.535 5.00897,8.535 -2.77991,0.14594 -5.52338,-0.68423 -7.75598,-2.34698 -3.61096,-2.76902 -7.12097,-9.32401 -7.12097,-9.32401 z"
   id="path186" />
			<path
   style="fill:#097754"
   d="m 728.18701,397.94 c -1.27667,3.14575 -1.90265,6.51761 -1.84003,9.91199 0.23902,5.14301 3.23999,10.93701 3.23999,10.93701 0,0 2.71302,-6.17401 2.474,-11.31799 C 731.823,402.328 728.914,399.396 728.18695,397.94 Z"
   id="path188" />
			<path
   style="fill:#097754"
   d="m 717.65698,444.29999 c 2.08765,2.74884 4.74903,5.00992 7.79901,6.626 4.72803,2.33701 11.77301,2.42402 11.77301,2.42402 -2.26483,-2.82279 -5.06726,-5.16806 -8.24499,-6.9 -4.72803,-2.337 -11.32703,-2.15201 -11.32703,-2.15201 z"
   id="path190" />
			<path
   style="fill:#097754"
   d="m 719.177,454.26001 c 0,0 2.25702,4.42099 6.38397,6.31601 4.12903,1.896 12.57398,1.73999 12.57398,1.73999 -2.01843,-2.49127 -4.526,-4.54248 -7.36798,-6.02701 -4.12799,-1.897 -11.59101,-2.02899 -11.59101,-2.02899 h 10e-4 z"
   id="path192" />
			<path
   style="fill:#097754"
   d="m 742.94702,430.67999 c -1.50372,2.63871 -2.28046,5.62909 -2.25098,8.66602 0.245,4.54501 3.22699,9.51098 3.22699,9.51098 0,0 2.09699,-5.69299 1.85199,-10.23699 -0.20916,-2.85349 -1.1867,-5.59714 -2.82898,-7.94001 z"
   id="path194" />
			<path
   style="fill:#097754"
   d="m 752.13702,436.51001 c 0,0 -4.26898,5.73001 -4.88202,11.621 -0.61297,5.89002 2.42798,11.94199 2.42798,11.94199 0,0 5.15699,-5.17801 5.77002,-11.068 0.61298,-5.89199 -3.31598,-12.49301 -3.31598,-12.49301 z"
   id="path196" />
			<path
   style="fill:#097754"
   d="m 740.367,490.91 c 0.47028,1.59287 1.25092,3.077 2.297,4.36701 1.45715,1.69794 3.07691,3.2493 4.836,4.63199 2.16095,-0.57935 4.42926,-0.63248 6.61499,-0.155 3.66498,0.79501 8.53998,4.06 8.53998,4.06 0,0 -5.24701,-7.831 -10.69501,-10.87601 -3.56824,-1.83685 -7.61096,-2.54453 -11.591,-2.02899 z"
   id="path198" />
			<path
   style="fill:#097754"
   d="m 739.82703,504.37 c 0,0 6.79303,-2.90201 12.38702,-2.15302 5.59497,0.74899 10.63898,5.17099 10.63898,5.17099 0,0 -7.56098,2.616 -13.15503,1.86801 -3.68634,-0.66281 -7.10932,-2.35693 -9.87201,-4.88598 h 10e-4 z"
   id="path200" />
			<path
   style="fill:#097754"
   d="m 768.53699,472.79001 c 0,0 -6.00702,6.36401 -6.51099,11.88699 -0.50299,5.52201 4.87097,10.66901 4.87097,10.66901 -0.14245,-1.982 0.0816,-3.97324 0.66101,-5.87399 0.76563,-1.71851 1.73706,-3.33768 2.89301,-4.822 0.47583,-1.66326 0.6499,-3.39834 0.51398,-5.12298 -0.45954,-2.35675 -1.27839,-4.62894 -2.42798,-6.737 z"
   id="path202" />
			<path
   style="fill:#097754"
   d="m 777.15698,480.16 c 0,0 -5.66198,5.72901 -7.15802,11.86402 -1.49701,6.13501 1.16999,12.67599 1.16999,12.67599 0,0 5.14898,-4.06201 6.64599,-10.19601 1.49701,-6.13501 -0.659,-14.344 -0.659,-14.344 h 10e-4 z"
   id="path204" />
			<path
   style="fill:#097754"
   d="m 791.33698,517.14001 c 1.47796,3.13062 2.55804,6.43396 3.21502,9.83301 0.65198,4.47699 0.048,6.02698 0.048,6.02698 0,0 -2.65198,2.60699 -3.84101,4.14001 -1.52801,1.96998 -1.75201,5.57599 -1.75201,5.57599 0,0 -5.32501,-7.91601 -4.50403,-13.703 0.82001,-5.78601 6.83398,-11.87402 6.83398,-11.87402 z"
   id="path206" />
			<path
   style="fill:#097754"
   d="m 802.55701,529.53003 c 0,0 -6.818,4.50299 -9.52301,9.12299 -1.60956,2.83648 -2.07593,6.18029 -1.30402,9.34899 3.15625,-0.44879 5.93878,-2.30456 7.56598,-5.04602 2.70599,-4.61798 3.26001,-13.427 3.26001,-13.427 z"
   id="path208" />
			<path
   style="fill:#097754"
   d="m 757.75702,548.54999 c 0,0 9.82599,-0.26801 15.83197,1.20898 6.00598,1.47498 8.19202,4.69501 8.19202,4.69501 0,0 -6.75299,3.16199 -12.75898,1.68597 -6.00598,-1.47497 -11.26599,-7.591 -11.26599,-7.591 z"
   id="path210" />
			<path
   style="fill:#097754"
   d="m 756.09698,536.89001 c 0,0 4.43299,6.87299 10.16401,9.36701 7.89801,3.435 17.04297,1.77002 17.04297,1.77002 0,0 -4.96802,-6.08899 -11.80402,-8.77698 -6.83801,-2.68701 -15.40302,-2.35901 -15.40302,-2.35901 z"
   id="path212" />
		</g>
		<path
   d="m 1092.517,401.944 1.281,2.71201 c -1.2731,0.47766 -2.3411,1.38205 -3.022,2.55899 -0.9399,1.84698 0.615,4.45498 0.615,4.45498 0,0 -10.804,-0.94299 -12.491,0.15399 -1.5279,0.98999 0.647,8.474 -0.359,14.79502 -1.402,8.81 -4.875,8.07001 -5.017,9.77701 -0.1379,1.65899 1.3311,4.24899 1.3311,4.24899 0,0 -2.026,0.638 -2.458,1.48498 -0.695,1.362 0.484,3.875 -0.358,5.52799 -4.7,9.22299 -11.6401,22.836 -16.2281,31.84299 -0.641,1.25698 -2.363,1.737 -3.2259,3.42999 -0.4542,1.23157 -0.5078,2.57519 -0.153,3.83899 0,0 -3.041,0.182 -4.0959,2.25299 -0.6642,1.63919 -0.8247,3.43915 -0.4611,5.17001 -1.229,0.21887 -2.2877,0.99375 -2.868,2.099 -1.0091,1.98099 0.6999,3.01999 0.259,3.89099 -6.1689,12.10199 -13.4339,26.36798 -17.8669,35.068 -1.631,3.19897 -7.338,3.84002 -10.6501,10.341 -1.8952,3.57782 -1.3424,7.96002 1.3821,10.95502 0,0 -4.772,0.432 -6.04,2.919 -1.292,2.53498 -0.27,6.38397 3.174,8.13898 3.444,1.75403 7.207,0.33398 8.5,-2.20099 1.267,-2.487 -1.281,-6.604 -1.281,-6.604 4.0319,0.40741 7.8915,-1.73719 9.6751,-5.37598 3.313,-6.50098 0.52,-11.44098 2.15,-14.64099 4.434,-8.70001 11.7,-22.96503 17.867,-35.06799 0.4449,-0.87101 2.2669,-0.11701 3.276,-2.098 0.5538,-1.11221 0.5538,-2.4198 0,-3.53201 1.6247,-0.72842 2.997,-1.92245 3.943,-3.431 1.056,-2.07101 -0.563,-4.65799 -0.563,-4.65799 1.2326,-0.44122 2.2912,-1.26633 3.02,-2.354 0.8621,-1.693 0.228,-3.35001 0.869,-4.60901 4.59,-9.00601 11.531,-22.62 16.229,-31.841 0.843,-1.655 3.5551,-2.22101 4.249,-3.585 0.432,-0.846 -0.255,-2.86599 -0.255,-2.86599 0,0 2.9881,-0.29599 4.2481,-1.383 1.298,-1.11801 -1.3371,-3.51599 4.967,-9.82901 4.522,-4.52798 11.817,-7.19198 11.7221,-9.01001 -0.105,-2.01001 -7.218,-10.18701 -7.218,-10.18701 0,0 3.0009,-0.25299 3.942,-2.09799 0.5534,-1.25769 0.662,-2.66632 0.308,-3.99399 l 2.968,-0.51199 5e-4,-14.07801 z m -98.13602,196.07401 c -0.48974,0.98266 -0.48974,2.1383 0,3.12097 0,0 -3.58301,-1.12 -4.81201,-0.51203 -1.15802,0.573 0,17.45801 0,17.45801 0,0 14.29503,-9.018 14.07703,-10.28998 -0.23,-1.35199 -3.225,-3.63501 -3.225,-3.63501 1.0731,-0.1651 2.0042,-0.82971 2.509,-1.79101 0.47,-0.92499 0.533,-3.568 -2.714,-5.22302 -0.96771,-0.53785 -2.06958,-0.78638 -3.1745,-0.71601 -1.09088,0.0699 -2.08123,0.66101 -2.66052,1.58801 z"
   id="path216" />
		<g
   id="g244">
			<path
   style="fill:#f5d402"
   d="m 1095.1169,402.51001 6.757,3.431 -0.101,-8.1405 z"
   id="path218" />
			<path
   style="fill:#f5d402"
   d="m 1092.507,407.42499 c -1.1912,1.79855 -0.6989,4.22223 1.0997,5.41342 1.7985,1.19119 4.2222,0.69885 5.4133,-1.09967 1.1913,-1.79855 0.6989,-4.22223 -1.0996,-5.41342 -0.1276,-0.0845 -0.2599,-0.16138 -0.3965,-0.23032 -0.6782,-0.35116 -1.4393,-0.51071 -2.2015,-0.46149 -1.1902,0.0545 -2.262,0.73655 -2.8156,1.79151 z"
   id="path220" />
			<path
   style="fill:#f5d402"
   d="m 1080.887,413.62 c -0.7111,0.45999 0.2559,6.54501 0.051,11.72198 -0.194,4.88199 -1.756,6.25699 -2.611,7.935 -0.7889,1.54901 -3.634,3.379 -3.634,3.379 l 2.354,2.35501 c 0,0 1.532,-2.38599 3.942,-7.11802 2.843,-5.57901 2.751,-15.68798 3.585,-16.22698 2.1819,-0.76752 4.4034,-1.41712 6.655,-1.94602 -10e-4,0 -5.442,-0.29401 -8.447,-0.25449 -0.6359,-0.0392 -1.2739,0.0128 -1.895,0.15452 z"
   id="path222" />
			<path
   style="fill:#f5d402"
   d="m 1081.507,441.72501 c 1.0411,-2.5871 2.2204,-5.11643 3.5329,-7.577 3.3111,-6.49899 10.379,-11.21301 10.544,-12.38901 0.172,-1.212 -2.4566,-6.91049 -2.4566,-6.91049 0,0 -6.2355,1.1955 -7.1175,2.04849 -0.8521,0.823 -0.476,9.267 -3.788,15.767 -1.2303,2.52957 -2.597,4.99051 -4.094,7.37201 z"
   id="path224" />
			<path
   style="fill:#f5d402"
   d="m 1097.427,422.22 c 0.052,0.98901 -8.163,6.86099 -11.007,12.439 -2.41,4.73098 -3.43,7.37298 -3.43,7.37298 l 3.277,0.512 c 0,0 -0.226,-3.36701 0.563,-4.91501 0.854,-1.677 1.0789,-3.73099 4.915,-6.75699 4.068,-3.20902 9.567,-6.01401 9.522,-6.86099 -0.041,-0.78202 -6.1436,-8.344 -6.1436,-8.344 0.882,2.14252 1.6509,4.32987 2.3035,6.55301 z"
   id="path226" />
			<path
   style="fill:#f5d402"
   d="m 1073.3669,458.72 c 4.9361,-9.68799 6.444,-10.34799 7.065,-11.569 0.6689,-1.31201 0.509,-3.078 -1.689,-4.199 -0.6549,-0.36325 -1.4033,-0.52308 -2.1495,-0.45902 -0.9581,0.11389 -1.7901,0.71323 -2.2016,1.586 -0.6219,1.22198 -0.285,2.85501 -5.223,12.54401 l -11.212,21.96099 c -0.6447,1.11463 -0.2636,2.54078 0.8511,3.18537 0,3e-5 0,3e-5 0,3e-5 v 0 c 0.056,0.0326 0.114,0.0628 0.1729,0.0906 1.0786,0.60395 2.4428,0.21912 3.0467,-0.85952 0.048,-0.0863 0.091,-0.1756 0.1273,-0.26749 z"
   id="path228" />
			<path
   style="fill:#f5d402"
   d="m 1053.557,483.90799 c -0.611,1.20099 0.436,2.96399 2.355,3.94299 1.9189,0.97602 3.996,0.79099 4.607,-0.41 0.611,-1.20001 -0.4859,-2.96399 -2.406,-3.94299 -0.847,-0.45612 -1.804,-0.66834 -2.7645,-0.61301 -0.7349,0.005 -1.4139,0.39255 -1.7915,1.02301 z"
   id="path230" />
			<path
   style="fill:#f5d402"
   d="m 1049.407,490.15302 c -0.792,1.553 0.443,3.78298 2.765,4.96798 2.322,1.18302 4.84,0.88599 5.631,-0.66699 0.792,-1.55399 -0.444,-3.78201 -2.765,-4.96701 -0.7928,-0.41742 -1.6652,-0.66147 -2.5595,-0.716 -1.2058,-0.17804 -2.405,0.36154 -3.0715,1.38198 z"
   id="path232" />
			<path
   style="fill:#f5d402"
   d="m 1046.797,497.117 c -0.611,1.19901 0.437,2.96302 2.355,3.94101 1.9189,0.978 3.995,0.79099 4.608,-0.40899 0.611,-1.20001 -0.437,-2.96399 -2.355,-3.94199 -0.8651,-0.45727 -1.8386,-0.66992 -2.8155,-0.61499 -0.7354,0.006 -1.4147,0.39404 -1.7925,1.02499 z"
   id="path234" />
			<path
   style="fill:#f5d402"
   d="m 1045.1071,503.772 c 0,0 -12.448,24.49997 -16.84,33.12101 -1.4041,2.75402 -7.312,4.46997 -9.625,9.01098 -2.33,4.56799 -0.686,8.844 2.354,10.39203 3.0389,1.54901 7.5019,0.42297 9.8299,-4.146 2.313,-4.53997 0.235,-10.35302 1.637,-13.10601 4.393,-8.62403 16.843,-33.12201 16.843,-33.12201 0.6629,-1.08283 0.3224,-2.49796 -0.7605,-3.1608 -0.069,-0.0421 -0.1396,-0.0806 -0.2125,-0.1152 -0.4391,-0.23325 -0.9403,-0.32261 -1.433,-0.2555 -0.7787,0.1594 -1.4403,0.66916 -1.7929,1.3815 z"
   id="path236" />
			<path
   style="fill:#f5d402"
   d="m 1013.617,560.646 c -0.933,1.83001 0.134,4.26898 2.405,5.42602 2.272,1.15802 4.904,0.60101 5.837,-1.22803 0.933,-1.83001 -0.186,-4.27002 -2.457,-5.427 -0.788,-0.41681 -1.6686,-0.62787 -2.56,-0.61352 -1.3318,-0.025 -2.5701,0.68249 -3.2249,1.84253 z"
   id="path238" />
			<path
   style="fill:#f5d402"
   d="m 997.034,598.06897 c -0.60334,-0.0542 -1.18933,0.21954 -1.53498,0.71698 -0.47699,0.935 0.508,2.41302 2.20099,3.276 1.693,0.862 3.46399,0.78198 3.94199,-0.15399 0.477,-0.93701 -0.51,-2.414 -2.20096,-3.276 -0.74225,-0.38715 -1.57001,-0.58118 -2.40698,-0.56403 z"
   id="path240" />
			<path
   style="fill:#f5d402"
   d="m 991.198,602.67499 v 12.08197 l 9.83,-7.065 c -2.13652,-3.318 -5.88957,-5.23383 -9.83,-5.01801 z"
   id="path242" />
		</g>
	</g>
	<g
   id="g304">
		<path
   style="fill:#f5d402"
   d="m 997.41998,333.59698 c 0,-6.626 8.70302,-13.15701 8.70302,-13.15701 H 793.87701 c 0,0 8.70301,6.53 8.70301,13.15701 v 157.98603 c -0.076,3.47128 1.10602,6.85293 3.328,9.52099 2.04102,2.853 6.39001,6.79502 10.90302,9.72699 13.94,9.05298 37.24597,18.599 54.88,26.62098 14.69397,6.68402 20.67102,9.38098 28.30902,18.83898 7.63898,-9.458 13.66699,-12.15399 28.36102,-18.83898 17.63099,-8.021 40.93799,-17.568 54.87903,-26.62101 4.51502,-2.932 8.86402,-6.87298 10.90399,-9.72699 2.20551,-2.67416 3.36908,-6.05594 3.276,-9.52099 z"
   id="path248" />
		<path
   style="fill:#d10429"
   d="m 807.59698,422.98099 v -89.38498 c 0.0478,-2.91831 -0.85046,-5.77368 -2.56048,-8.13901 h 189.92798 c -1.70954,2.36554 -2.60761,5.2208 -2.56,8.13901 l 0.054,89.38501 -92.43048,28 z"
   id="path250" />
		<path
   style="fill:#0b45bb"
   d="M 992.45801,422.98099 935.224,421.90598 h -70.39301 l -57.23401,1.07501 v 68.60098 c 0,3.448 3.57801,11.52499 24.21503,21.80701 34.11102,16.99798 60.33002,24.93402 68.18903,34.60699 7.85797,-9.67297 34.07702,-17.60998 68.18902,-34.60699 20.63599,-10.28202 24.21399,-18.35901 24.21399,-21.80701 z"
   id="path252" />
		<g
   id="g274">
			<path
   d="m 933.84003,419.401 c 0,0 33.01898,-8.32599 33.01898,-43.617 0,-27.56299 -33.10303,-41.237 -34.04401,-47.814 -3.23498,11.38101 11.05799,27.10001 11.05799,45.715 0,24.086 -17.76398,25.23901 -17.76398,25.23901 -4.15698,0 -5.841,2.96799 -7.47498,2.96799 -3.49701,-0.36499 -5.143,-4.81299 -8.60101,-4.81299 -3.24701,0 -5.73999,5.017 -10.03302,5.017 -4.29199,0 -6.73499,-5.017 -9.98297,-5.017 -3.45599,0 -5.10303,4.448 -8.59998,4.81299 -1.63397,0 -3.31897,-2.96799 -7.47601,-2.96799 0,0 -17.763,-1.15301 -17.763,-25.23901 0,-18.61499 14.29498,-34.336 11.05798,-45.715 -0.93799,6.577 -34.04101,20.25 -34.04101,47.814 0,35.29101 33.01898,43.617 33.01898,43.617 l -9.41998,17.14899 c 0,0 13.64502,0.68301 20.88702,6.86099 8.73297,7.448 7.883,23.229 7.883,34.70902 0,9.04501 -1.14301,18.58999 -5.784,22.52398 -6.232,5.284 -10.44501,5.67499 -10.44501,11.87799 0,5.17401 3.97699,6.211 10.44501,9.625 8.28699,4.37299 7.901,10.23798 20.21997,10.23798 12.32098,0 11.98499,-5.86402 20.27301,-10.23798 6.46802,-3.414 10.44403,-4.45099 10.44403,-9.625 0,-6.203 -4.21399,-6.59399 -10.44397,-11.87799 -4.64099,-3.936 -5.784,-13.48001 -5.784,-22.52398 0,-11.48002 -0.84899,-27.26099 7.883,-34.70899 7.24298,-6.177 20.88599,-6.86099 20.88702,-6.86099 z"
   id="path254" />
			<path
   d="m 899.99701,330.42001 -5.73499,16.28101 -15.61401,-7.42401 7.42297,15.61499 -16.27899,5.78399 16.27899,5.78501 -7.42297,15.56299 15.61401,-7.42301 5.73499,16.27899 5.78497,-16.27899 15.61402,7.42301 -7.422,-15.56299 16.27899,-5.78501 -16.27899,-5.78399 7.422,-15.61499 -15.61402,7.42401 z"
   id="path256" />
			<path
   d="m 864.82703,421.91 c 0,0 -20.38703,-4.98401 -28.00202,-15.05099 -8.47638,7.40719 -18.44537,12.90665 -29.23199,16.12601 0,0 16.60699,7.49798 29.23199,17.048 5.81702,-8.336 28.00202,-18.12299 28.00202,-18.12299 z"
   id="path258" />
			<path
   d="m 935.21698,421.91 c 0,0 22.18597,9.78601 28.00403,18.12299 12.62298,-9.54999 29.229,-17.048 29.229,-17.048 -10.78546,-3.22004 -20.75329,-8.71943 -29.229,-16.12601 -7.61499,10.06601 -28.00403,15.05099 -28.00403,15.05099 z"
   id="path260" />
			<path
   d="m 873.177,443.60999 -7.935,7.93399 7.935,7.93499 7.935,-7.93499 z"
   id="path262" />
			<path
   d="m 926.87701,443.60999 -7.93402,7.93399 7.93402,7.93499 7.935,-7.93499 z"
   id="path264" />
			<path
   d="m 871.17999,489.94 c 0.0931,5.1203 -0.23193,10.23963 -0.97198,15.30701 0,0 11.18597,-3.293 13.414,-14.64099 1.04401,-5.32001 2.20697,-24.918 -3.17499,-28.259 l -14.58948,-2.86701 c 3.52893,9.76737 5.33002,20.07468 5.32251,30.45999 z"
   id="path266" />
			<path
   d="m 919.60602,462.34799 c -5.38098,3.34 -4.21802,22.93799 -3.17401,28.259 2.22699,11.348 13.41302,14.641 13.41302,14.641 -0.74005,-5.06739 -1.06512,-10.18671 -0.97198,-15.30701 -0.008,-10.38574 1.79351,-20.69345 5.32452,-30.46051 z"
   id="path268" />
			<path
   d="m 836.78198,462.91501 c -4.98895,1.19955 -8.06085,6.21631 -6.86126,11.20526 0.19842,0.82541 0.50909,1.61972 0.92327,2.36075 -0.7453,-0.25095 -1.51953,-0.40586 -2.30401,-0.461 -0.32379,-0.0165 -0.6482,-0.0165 -0.97199,0 -5.17932,0.21713 -9.20196,4.59183 -8.9848,9.77115 0.21716,5.17929 4.59186,9.20193 9.77112,8.9848 0.38837,-0.0163 0.77533,-0.0567 1.15869,-0.12094 -0.45654,0.61597 -0.83447,1.28647 -1.125,1.996 -1.96161,4.81052 0.34796,10.30039 5.15845,12.26196 4.81048,1.96158 10.30035,-0.34793 12.26196,-5.15844 l 0.0356,-0.0885 c 0.27967,-0.70743 0.46912,-1.44724 0.56403,-2.202 0.45599,0.62708 0.98883,1.19449 1.586,1.689 3.93011,3.38629 9.86127,2.94537 13.24756,-0.98478 3.38629,-3.93014 2.94537,-9.86126 -0.98474,-13.24752 -0.64331,-0.55426 -1.35877,-1.01874 -2.12684,-1.38074 0.737,-0.23563 1.44178,-0.56214 2.09803,-0.97199 4.39752,-2.78048 5.72406,-8.59045 2.96899,-13.00399 -1.82788,-2.91739 -5.11462,-4.59018 -8.54901,-4.35102 -1.56378,0.10605 -3.07672,0.59882 -4.40301,1.43399 -0.65369,0.40216 -1.25525,0.88349 -1.79102,1.43302 -0.0237,-5.22904 -4.28198,-9.44876 -9.51105,-9.42499 -0.7279,0.003 -1.453,0.0905 -2.16089,0.25998 h -6e-5 z"
   id="path270" />
			<path
   d="m 936.60199,490.25 c 1.01703,9.58701 8.80798,17.61899 18.42902,19.914 -1.6695,-2.68698 -2.719,-5.71234 -3.07203,-8.85599 -1.20501,-11.36999 7.58802,-20.58099 19.607,-20.58099 1.86261,0.002 3.71826,0.22641 5.52801,0.66699 -4.47961,-7.24997 -12.36511,-11.69522 -20.88702,-11.7745 -12.01794,4.9e-4 -20.81299,9.26248 -19.60498,20.63049 z"
   id="path272" />
		</g>
		<g
   id="g301">
			<path
   style="fill:#ffd200"
   d="m 851.36902,373.68399 c 0,18.12799 9.66699,28.82101 22.57599,28.82101 2.46197,0 5.15503,3.32801 7.47497,3.32801 3.78199,0 6.29798,-4.198 8.60102,-4.198 2.927,0 4.90002,4.60699 9.98199,4.60699 5.08301,0 7.107,-4.60699 10.034,-4.60699 2.302,0 4.81799,4.198 8.59997,4.198 2.32099,0 5.01203,-3.32801 7.47498,-3.32801 12.909,0 22.57703,-10.69299 22.57703,-28.82098 0,-14.784 -12.41602,-32.81 -11.05799,-35.73401 0,0 24.21399,17.36899 24.21399,37.832 0,32.96302 -33.42902,41.10901 -33.42902,41.10901 l 7.52503,16.944 c 0,0 -10.362,1.55399 -16.68903,6.65601 -8.43902,6.80499 -8.54998,25.19101 -8.54998,37.626 0,14.64802 0.54498,20.85502 5.83697,24.82901 5.58002,4.193 9.77698,5.09601 9.77698,9.36902 0,3.72303 -4.34497,5.24598 -9.98297,7.72998 -6.41303,2.82703 -7.05201,7.73102 -16.33002,7.73102 -9.27899,0 -9.867,-4.90399 -16.28003,-7.73102 -5.63702,-2.484 -9.98297,-4.00598 -9.98297,-7.72998 0,-4.27301 4.19702,-5.17599 9.77698,-9.36898 5.29199,-3.974 5.836,-10.181 5.836,-24.82901 0,-12.435 -0.10999,-30.82099 -8.54902,-37.62601 -6.328,-5.10401 -16.68902,-6.65601 -16.68902,-6.65601 l 7.52399,-16.944 c 0,0 -33.42798,-8.14499 -33.42798,-41.10901 0,-20.46301 24.21502,-37.832 24.21502,-37.832 1.35797,2.92401 -11.057,20.95001 -11.057,35.73401 z M 887.35699,509.81 c -6.56701,0 -10.75,1.38598 -10.75,3.37903 0,1.99401 4.18403,3.328 10.75,3.328 1.75,0 3.737,-1.01898 3.737,-3.328 -0.0447,-1.91602 -1.63415,-3.43308 -3.55017,-3.3884 -0.0623,10e-4 -0.12457,0.005 -0.18683,0.009 z m 25.34003,0 c -1.91089,-0.1478 -3.57977,1.28149 -3.7276,3.19238 v 6e-5 c -0.005,0.0621 -0.008,0.12427 -0.009,0.18659 -9.7e-4,2.30902 1.987,3.328 3.737,3.328 6.56799,0 10.75,-1.33301 10.75,-3.328 0,-1.99399 -4.18298,-3.379 -10.75,-3.379 z"
   id="path276" />
			<path
   style="fill:#ffd200"
   d="m 900.05701,341.38 3.68597,10.39402 9.93097,-4.76099 -4.71002,9.982 10.34198,3.68701 -10.34198,3.686 4.71002,9.931 -9.93103,-4.70999 -3.737,10.341 -3.68597,-10.341 -9.93103,4.70999 4.71002,-9.931 -10.34101,-3.686 10.34101,-3.68701 -4.71002,-9.982 9.93103,4.76099 3.737,-10.39402 z"
   id="path278" />
			<path
   style="fill:#ffd200"
   d="m 817.31403,423.27899 c 0,0 12.609,6.28 18.94299,11.87702 l 0.35699,0.307 0.20398,-0.255 c 5.98603,-6.871 17.09803,-12.69602 17.09803,-12.69602 0,0 -10.67603,-2.945 -17.40448,-10.64801 -7.11152,7.24802 -19.19751,11.41501 -19.19751,11.41501 z"
   id="path280" />
			<path
   style="fill:#ffd200"
   d="m 982.72498,423.29501 c 0,0 -12.60901,6.28 -18.943,11.87702 l -0.35699,0.307 -0.20398,-0.255 c -5.98602,-6.871 -17.09802,-12.69601 -17.09802,-12.69601 0,0 10.67602,-2.94501 17.40448,-10.64802 7.11151,7.24799 19.19751,11.41501 19.19751,11.41501 z"
   id="path282" />
			<path
   style="fill:#ffd200"
   d="m 873.177,447.39999 4.14697,4.14499 -4.14697,4.19901 -4.198,-4.19901 z"
   id="path284" />
			<path
   style="fill:#ffd200"
   d="m 926.87701,447.39999 4.19898,4.14499 -4.19898,4.19901 -4.14599,-4.19901 z"
   id="path286" />
			<path
   style="fill:#ffd200"
   d="m 878.81,465.51901 c 2.89697,3.99799 2.40503,10.46201 2.40503,19.45499 0.17596,5.10635 -2.43,9.9068 -6.80799,12.54101 0,-21.794 -2.24701,-27.03399 -3.42999,-33.63449 z"
   id="path288" />
			<path
   style="fill:#ffd200"
   d="m 929.07703,463.88 c -1.185,6.60199 -3.42902,11.84101 -3.42902,33.63401 -4.37842,-2.63391 -6.9848,-7.43442 -6.80902,-12.54099 0,-8.99301 -0.49201,-15.45498 2.40601,-19.45401 l 7.83197,-1.63901 z"
   id="path290" />
			<path
   id="leaf"
   style="fill:#ffd200"
   d="m 846.60901,472.12799 c 0.18774,0.78775 0.2395,1.60181 0.15301,2.40701 -0.0674,0.63233 -0.22223,1.25223 -0.46002,1.84201 -4.1018,-1.45407 -8.67572,-0.27996 -11.57001,2.97001 -0.51269,-0.44758 -0.96038,-0.96457 -1.33001,-1.53602 -0.44092,-0.65795 -0.76972,-1.38449 -0.97303,-2.14999 -0.97222,-3.91653 1.41462,-7.87967 5.33118,-8.8519 3.91174,-0.97101 7.87103,1.40885 8.84882,5.31891 z" />
			<path
   id="leaf-2"
   style="fill:#ffd200"
   d="m 857.52325,485.78574 c -0.69122,0.42199 -1.4494,0.72277 -2.24194,0.88934 -0.62219,0.13129 -1.25958,0.17563 -1.89398,0.13171 0.11536,-4.3504 -2.41473,-8.33758 -6.40003,-10.08593 0.26728,-0.62592 0.62061,-1.21143 1.04987,-1.7396 0.4895,-0.62268 1.07886,-1.15988 1.74408,-1.58978 3.42255,-2.13788 7.93018,-1.09644 10.06812,2.32614 2.13787,3.42258 1.09637,7.93021 -2.32618,10.06809 z" />
			<path
   id="leaf-3"
   style="fill:#ffd200"
   d="m 847.90674,500.38632 c -0.61493,-0.52695 -1.13526,-1.15512 -1.53858,-1.85736 -0.31713,-0.55118 -0.55621,-1.14371 -0.71051,-1.76062 4.17316,-1.23462 7.18335,-4.87295 7.61463,-9.20346 0.67785,0.0607 1.34387,0.21585 1.97882,0.46088 0.74347,0.27313 1.43646,0.66763 2.0509,1.16745 3.08411,2.60244 3.47461,7.21231 0.87219,10.29641 -2.59289,3.07282 -7.18115,3.47348 -10.26739,0.89658 z" />
			<path
   id="leaf-4"
   style="fill:#ffd200"
   d="m 831.04901,495.75232 c 0.31116,-0.74765 0.7478,-1.43668 1.29102,-2.03726 0.42621,-0.47193 0.91583,-0.88245 1.45489,-1.21982 2.46381,3.58737 6.85425,5.32593 11.10608,4.39789 0.15167,0.66345 0.20996,1.34485 0.17316,2.02441 -0.03,0.79147 -0.1911,1.57251 -0.47656,2.31131 -1.51465,3.74036 -5.77472,5.54465 -9.51508,4.02997 -3.737,-1.51331 -5.54205,-5.76758 -4.03345,-9.5065 z" />
			<path
   id="leaf-5"
   style="fill:#ffd200"
   d="m 830.24701,478.28775 c 0.80719,0.0649 1.59741,0.26721 2.33649,0.59827 0.5805,0.25952 1.12225,0.59832 1.60968,1.00671 -2.65046,3.45172 -2.94721,8.16458 -0.75068,11.92151 -0.5841,0.3493 -1.21411,0.61533 -1.87182,0.79028 -0.76203,0.21601 -1.55457,0.3042 -2.34546,0.26099 -4.02527,-0.28555 -7.05695,-3.78018 -6.77142,-7.80548 0.28521,-4.02048 3.77221,-7.05069 7.79321,-6.77225 z" />
			<circle
   style="fill:#ffd200"
   cx="842.66699"
   cy="486.46799"
   r="7.0650024"
   id="circle297" />
			<path
   style="fill:#ffd200"
   d="m 966.70203,476.94199 c -11.72901,2.268 -20.16999,12.62799 -18.94202,24.72699 -3.73798,-3.09601 -6.47302,-7.266 -6.96198,-11.87702 -0.95098,-8.979 5.57099,-15.922 15.40949,-15.922 3.71503,0.0334 7.3479,1.09687 10.49451,3.072 z"
   id="path299" />
		</g>
		<path
   id="_136445216"
   d="M 1001.9737,322.01736 H 798.02643 c 2.70459,2.72348 6.13812,7.06699 6.13812,11.56891 v 137.20121 h -0.006 v 20.78601 h 0.006 c -0.0306,1.62768 0.23126,3.24762 0.77313,4.78274 0.52497,1.36112 1.25629,2.63333 2.16822,3.772 l 0.0369,0.0495 c 1.98841,2.53376 4.2981,4.79804 6.87079,6.73578 0.58142,0.45551 1.17633,0.90277 1.77576,1.33301 0.58227,0.41766 1.19159,0.83432 1.81805,1.24115 l 0.0144,0.01 c 10.85339,7.04626 27.57397,14.45526 42.7655,21.18384 4.23553,1.87646 8.36664,3.70623 11.89563,5.31189 l 0.006,0.006 v -8.5e-4 l 0.33752,0.15301 h 0.005 c 13.90534,6.32538 20.10565,9.14783 27.36701,17.65125 7.28112,-8.53491 13.46154,-11.34656 27.49475,-17.72955 l -8.6e-4,-0.002 0.16022,-0.0729 c 3.53711,-1.60919 7.66009,-3.43536 11.89563,-5.31097 15.19238,-6.7295 31.91479,-14.13849 42.77087,-21.18567 l 0.009,-0.006 c 3.04522,-1.98108 5.86468,-4.28928 8.40802,-6.88339 0.41412,-0.43113 0.80291,-0.85953 1.1557,-1.27533 0.33123,-0.38971 0.6372,-0.77939 0.90814,-1.15833 l 0.0243,-0.0243 0.005,-0.007 0.0126,-0.0189 c 0.91839,-1.14441 1.65985,-2.42017 2.19964,-3.78461 0.55426,-1.52805 0.823,-3.14493 0.79291,-4.77011 h 0.006 v -20.78601 h -0.006 v -137.2013 c 0,-4.50192 3.43353,-8.84542 6.13812,-11.5689 z m -2.96308,11.56891 v 137.20127 h -0.006 v 20.78601 h 0.006 c 0.0295,2.00699 -0.31067,4.00229 -1.00354,5.88614 -0.64416,1.64444 -1.53088,3.18313 -2.63074,4.56494 l 0.004,0.003 c -0.29974,0.41855 -0.65979,0.87488 -1.06836,1.35636 -0.38708,0.45538 -0.82183,0.93423 -1.29248,1.42474 -2.71203,2.76709 -5.71856,5.22919 -8.96606,7.34241 l -0.009,0.006 c -11.09278,7.20105 -27.92505,14.65869 -43.21729,21.43225 -4.00244,1.77215 -7.89862,3.49835 -11.85962,5.30023 l -0.16021,0.0729 h -0.005 c -14.33471,6.52063 -20.1983,9.18744 -27.56768,18.31366 L 900,558.80353 l -1.23389,-1.52735 c -7.33789,-9.08483 -13.23486,-11.76776 -27.44799,-18.23352 l 8.5e-4,-0.002 -0.33301,-0.15124 -0.0117,-0.006 -0.005,-0.002 -8.6e-4,0.003 c -3.96997,-1.8064 -7.85809,-3.52814 -11.85962,-5.30115 -15.29223,-6.77362 -32.12451,-14.2312 -43.2146,-21.43225 l -0.0369,-0.0252 -0.0117,-0.008 8.5e-4,-8.5e-4 c -0.62469,-0.40589 -1.26458,-0.84241 -1.90631,-1.30322 -0.63812,-0.4581 -1.26629,-0.92975 -1.87475,-1.40674 -2.81268,-2.12644 -5.33496,-4.61179 -7.50263,-7.39279 h 8.6e-4 c -1.09662,-1.37995 -1.97473,-2.92014 -2.6037,-4.56669 -0.6734,-1.88372 -1.00238,-3.87329 -0.97113,-5.87353 h 0.006 v -20.78601 h -0.006 v -137.2013 c 0,-5.84118 -8.04163,-11.87399 -8.06415,-11.89111 v -2.85309 h 214.14968 v 2.85309 c -0.022,0.0171 -8.06417,6.04999 -8.06417,11.89111 z m -4.80322,-9.7211 0.005,-0.006 h 0.75421 l 3.28668,-0.001 -2.05365,2.57559 c -1.49157,2.08216 -2.26581,4.59281 -2.20599,7.15339 v 137.2012 h -0.006 v 20.78601 h 0.006 c 0,2.81082 -1.96753,8.2388 -11.2323,15.0043 l 0.002,0.003 c -1.73163,1.26544 -3.73236,2.58938 -6.03375,3.96283 -2.31671,1.38244 -4.90869,2.80172 -7.79871,4.2427 l -0.003,-0.005 -0.0297,0.0153 v 0.006 c -12.37805,6.16785 -23.80926,11.18182 -33.67889,15.51007 -16.95014,7.43329 -29.22821,12.81818 -33.98664,18.66919 l -0.0243,0.0315 -0.005,0.006 -1.23578,1.44 -1.19531,-1.47155 c -4.75653,-5.85462 -17.03827,-11.24219 -33.99652,-18.67817 -9.86249,-4.32458 -21.28381,-9.33502 -33.651,-15.49566 v -0.006 l -0.0206,-0.0108 -0.003,0.005 c -8.77527,-4.37143 -14.54706,-8.38101 -18.29657,-11.82453 -0.74017,-0.68341 -1.40582,-1.34283 -1.99713,-1.97824 -3.80902,-4.09329 -4.79358,-7.39999 -4.79535,-9.42053 h -0.006 v -0.005 h 0.006 v -20.78601 h -0.006 V 333.5864 c 0.0598,-2.56058 -0.71447,-5.0712 -2.20599,-7.15339 l -2.05383,-2.56778 h 6.82037 v -0.006 H 991.4342 v 0.006 h 2.77301 z m -2.7735,3.16272 v 0.006 H 808.56641 v -0.006 h -0.79029 c 0.92878,2.06156 1.40778,4.29734 1.40503,6.55847 v 137.20127 h -0.006 v 20.78601 h 0.006 v 0.005 h -0.006 c 8.5e-4,1.42743 0.81268,3.888 3.95288,7.26224 0.53997,0.57959 1.14666,1.18353 1.82257,1.80542 3.54791,3.25992 9.07495,7.08594 17.56573,11.31512 v 0.006 l 0.0206,0.0108 0.003,-0.005 c 12.44012,6.19754 23.74176,11.15488 33.50159,15.43448 16.1347,7.07514 28.13385,12.33759 33.95782,18.22101 5.82501,-5.88257 17.82501,-11.1441 33.9552,-18.21826 9.76709,-4.28314 21.07947,-9.245 33.52948,-15.44885 l 0.003,0.005 0.0297,-0.0153 v -0.006 c 2.88013,-1.43549 5.39655,-2.81076 7.58814,-4.1185 2.20684,-1.31674 4.12664,-2.58756 5.78717,-3.80081 h 0.005 c 8.1839,-5.97434 9.92187,-10.30164 9.92187,-12.4527 h 0.006 v -20.78601 h -0.006 V 333.5864 c -0.003,-2.26114 0.47626,-4.49692 1.40503,-6.55848 h -0.78931 z" />
	</g>
</g>
</svg>
