<svg width="500" height="500" viewBox="0 0 500 500" xmlns="http://www.w3.org/2000/svg">
   <rect fill="#FFF" width="500" height="500" />
   <rect fill="#DA121A" width="500" height="60" y="110" />
   <rect fill="#DA121A" width="500" height="60" y="330" />
   <path fill="#000"
      d="m 192.10935,193.125 v 26.25 h 12.5 v 70 h -12.5 v 17.5 h 115.78131 v -17.5 H 295.3906 v -70 h 12.50006 v -26.25 h -30.39069 v 27.5 h -12.5 v -27.5 h -30 v 27.5 h -12.5 v -27.5 z m 46.64062,68.75 h 22.5 v 27.5 h -22.5 z" />
   <g transform="translate(-197.14937,0)">
      <path fill="#DA121A"
         d="m 525.48957,218.74999 7.75744,23.87192 25.10072,10e-4 -20.30634,14.7546 7.75565,23.87251 -20.30748,-14.75307 -20.30748,14.75307 7.75565,-23.87251 -20.30636,-14.7546 25.10073,-10e-4 z" />
      <path fill="#DA121A"
         d="m 963.07776,293.6782 13.32438,41.00296 43.11356,0.002 -34.87863,25.34285 13.32128,41.00397 -34.88059,-25.34021 -34.88059,25.34021 13.32128,-41.00397 -34.87867,-25.34285 43.11359,-0.002 z"
         transform="matrix(0.5822,0,0,0.5822,30.741475,47.77054)" />
      <path fill="#DA121A"
         d="m 657.40056,218.74999 7.75745,23.87192 25.10072,10e-4 -20.30634,14.7546 7.75565,23.87251 -20.30748,-14.75307 -20.30748,14.75307 7.75565,-23.87251 -20.30636,-14.7546 25.10073,-10e-4 z" />
   </g>
   <g transform="matrix(1,0,0,1,-485.74097,0)">
      <path fill="#DA121A"
         d="m 525.48957,218.74999 7.75744,23.87192 25.10072,10e-4 -20.30634,14.7546 7.75565,23.87251 -20.30748,-14.75307 -20.30748,14.75307 7.75565,-23.87251 -20.30636,-14.7546 25.10073,-10e-4 z" />
      <path fill="#DA121A"
         d="m 963.07776,293.6782 13.32438,41.00296 43.11356,0.002 -34.87863,25.34285 13.32128,41.00397 -34.88059,-25.34021 -34.88059,25.34021 13.32128,-41.00397 -34.87867,-25.34285 43.11359,-0.002 z"
         transform="matrix(0.5822,0,0,0.5822,30.741475,47.77054)" />
      <path fill="#DA121A"
         d="m 657.40056,218.74999 7.75745,23.87192 25.10072,10e-4 -20.30634,14.7546 7.75565,23.87251 -20.30748,-14.75307 -20.30748,14.75307 7.75565,-23.87251 -20.30636,-14.7546 25.10073,-10e-4 z" />
   </g>
</svg>
