<svg viewBox="0 0 400 400" height="400" width="400" xmlns="http://www.w3.org/2000/svg">
   <rect fill="#078930" width="400" height="200" y="200"/>
   <rect fill="#0f47af" width="400" height="200"/>
   <path fill="#FCDD09"
      d="m 0,164.42773 v 52.80274 c 13.729669,-9.97206 27.460449,-9.73026 41.190099,0.91992 14.18113,11.00039 28.36055,11.00039 42.54167,0 14.18114,-11.00039 28.363141,-11.00039 42.544271,0 14.18112,11.00039 28.36185,11.00039 42.54297,0 14.18113,-11.00039 28.36183,-11.00039 42.54297,0 7.09057,5.5002 15.5149,8.25 22.60546,8.25 H 400 V 173.59961 H 232.63411 c -7.09056,0 -14.18156,-2.75176 -21.27213,-8.25195 -14.18114,-11.00038 -28.36184,-11.00038 -42.54297,0 -14.18112,11.00038 -28.36185,11.00038 -42.54297,0 -14.18113,-11.00038 -28.363131,-11.00038 -42.544271,0 -14.18112,11.00038 -28.36054,11.00038 -42.54167,0 -7.09056,-5.50019 -14.18157,-8.24805 -21.27213,-8.24805 -6.63909,0 -13.27888,2.50616 -19.917969,7.32812 z" />
   <g transform="translate(-31.729883,0)" fill="#FFF">
      <path
         d="m 83.691366,100.46869 h 19.999994 c 3.04699,0 5.49999,2.45301 5.49999,5.5 0,3.047 -2.453,5.5 -5.49999,5.5 H 83.691366 c -3.047,0 -5.5,-2.453 -5.5,-5.5 0,-3.04699 2.453,-5.5 5.5,-5.5 z" />
      <g>
         <path
            d="m 90.425002,112.96286 c 0,0 -0.0421,0.94296 -0.05,1.36719 -0.140735,3.17968 -1.032581,6.81817 -2.2303,9.8266 -2.043166,4.92452 -2.413805,7.95732 -0.429687,11.97274 1.984126,4.01541 5.975987,9.49363 5.975987,9.49363 0,0 3.992574,-5.47822 5.9767,-9.49363 1.984118,-4.01542 1.613478,-7.04822 -0.429688,-11.97273 -1.197719,-3.00844 -2.089276,-6.64736 -2.230012,-9.82704 -0.0079,-0.42423 -0.05,-1.36719 -0.05,-1.36719 2.4e-5,5.4e-4 -6.533,4.3e-4 -6.533,4.3e-4 z" />
         <path
            d="m 98.440836,112.96159 c 0.901567,6.99996 4.045504,15.60622 9.114684,19.95397 7.52069,5.61043 14.03798,-3.22645 12.3928,-9.80921 -2.09474,1.33964 -5.639,1.12656 -7.97424,0.31466 -1.63479,-0.59993 -3.09761,-1.83792 -4.75786,-3.82089 -2.24904,-2.89668 -3.25066,-6.62624 -6.13278,-6.63853 z" />
         <path
            d="m 88.941878,112.9637 c -0.90157,6.99996 -4.04551,15.60622 -9.114686,19.95397 -7.52069,5.61043 -14.03798,-3.22645 -12.3928,-9.80921 2.09474,1.33964 5.639,1.12656 7.97424,0.31466 1.63479,-0.59993 3.09761,-1.83792 4.75786,-3.82089 2.249036,-2.89668 3.250656,-6.62624 6.132776,-6.63853 z" />
      </g>
      <g>
         <path
            d="m 93.691636,27.974945 c 0,0 -18.606269,17.514974 -18.648437,30.660156 -0.01812,6.011748 2.532187,12.632745 8.117187,22.162111 6.30699,10.761252 6.898438,12.309893 6.898438,15.083984 v 3.09375 h 7.265625 v -3.09375 c 0,-2.774091 0.591451,-4.322732 6.898441,-15.083984 5.585,-9.529364 8.13528,-16.150363 8.11718,-22.16211 C 112.2979,45.489918 93.691636,27.974945 93.691636,27.974945 Z" />
         <path
            d="m 68.52135,72.116048 c 8.348076,0.60447 12.410202,8.757655 15.003627,12.913942 4.229788,6.82675 5.002611,8.990987 5.002611,11.260881 v 2.68405 H 85.84475 c -2.566704,0 -2.230256,0.16106 -4.063248,-2.84244 -1.832992,-3.0035 -5.091167,-5.610263 -8.857039,-5.78613 -9.131092,-0.424961 -14.660528,9.846669 -14.660528,9.846669 0,0 -1.488322,-1.163773 -2.894826,-2.621914 C 49.109053,91.08118 48.616933,84.358281 54.030131,78.485659 57.767333,74.43128 63.425939,72.034536 68.52135,72.116048 Z" />
         <path
            d="m 118.86146,72.116048 c -8.34807,0.60447 -12.4102,8.757656 -15.00362,12.913942 -4.229785,6.82675 -5.00261,8.990986 -5.00261,11.26088 v 2.68405 h 2.68283 c 2.56671,0 2.23026,0.161061 4.06325,-2.84244 1.83299,-3.0035 5.09117,-5.610263 8.85704,-5.78613 9.13109,-0.424961 14.66053,9.84667 14.66053,9.84667 0,0 1.48832,-1.163774 2.89482,-2.621914 6.26006,-6.489925 6.75218,-13.212824 1.33898,-19.085446 -3.7372,-4.054379 -9.39581,-6.451123 -14.49122,-6.369612 z" />
      </g>
   </g>
</svg>
