<svg width="500" height="500" viewBox="0 0 40 40" xmlns="http://www.w3.org/2000/svg">
   <rect fill="#EE1818" width="40" height="40" />
   <rect fill="#FFD600" width="40" height="24" y="8" />
   <path fill="#01429C"
      d="m 0,16 q 2.8571423,2.5 5.7142859,0 2.8571429,-2.5 5.7142861,0 2.857143,2.5 5.714285,0 2.857143,-2.5 5.714286,0 2.857142,2.5 5.714285,0 2.857144,-2.5 5.714287,0 Q 37.142857,18.5 40,16 v 8 q -2.857143,2.5 -5.714285,0 -2.857143,-2.5 -5.714287,0 -2.857143,2.5 -5.714285,0 Q 20,21.5 17.142857,24 14.285715,26.5 11.428572,24 8.5714288,21.5 5.7142859,24 2.8571423,26.5 0,24 Z" />
</svg>
