<svg xmlns="http://www.w3.org/2000/svg" xmlns:xlink="http://www.w3.org/1999/xlink" width="600" height="600">
   <rect width="200" height="600" fill="#DF1A23" x="0" y="0" />
   <rect width="600" height="200" fill="#FFF" x="200" y="0" />
   <rect width="600" height="200" fill="#DF1A23" x="200" y="200" />
   <rect width="600" height="200" fill="#007E3C" x="200" y="400" />
   <g x="50" id="g51" transform="translate(-50.000477)">
      <g id="a" fill="#ffffff" fill-rule="evenodd" stroke="#db161b" stroke-width="0.352">
         <rect x="65.853996" y="102.64" width="38.668999" height="21.216999" ry="3.0150001" rx="3.2149999"
            stroke-width="0.378" id="rect5" />
         <rect x="66.846001" y="103.52" width="36.686001" height="19.448999" ry="2.7639999" rx="3.05" id="rect6" />
         <path
            d="m 83.904,108.83 1.853,0.06 0.084,0.84 1.516,0.77 1.18,-0.96 1.431,0.77 -1.347,0.84 0.337,1.16 1.684,-0.06 v 1.55 l -1.347,-0.07 -0.674,0.97 1.516,1.1 -1.179,0.9 -1.264,-0.97 -1.853,0.39 0.084,1.42 -2.021,0.13 -0.253,-1.36 -1.684,-0.71 -0.927,0.97 -1.432,-0.71 0.843,-1.1 -1.011,-0.71 h -1.432 l -0.084,-2 1.432,0.13 1.01,-1.16 -1.179,-0.9 1.516,-1.04 1.095,0.84 1.853,-0.25 z"
            stroke-width="0.222" id="path6" />
         <ellipse transform="matrix(0.18418,0,0,0.1752,71.766,38.246)" ry="9.9440002" rx="11.049" cy="426.78"
            cx="68.944" stroke-width="1.333" id="ellipse6" />
         <path
            d="m 71.803,104.41 -2.974,2.65 m 4.957,-2.65 -2.974,2.65 m 4.957,-2.65 -2.974,2.65 m 4.957,-2.65 -2.974,2.65 m 4.957,-2.65 -2.974,2.65 m 4.957,-2.65 -2.974,2.65 m 4.958,-2.65 -2.975,2.65 m 4.958,-2.65 -2.975,2.65 m 4.958,-2.65 -2.975,2.65 m 4.958,-2.65 -2.975,2.65 m 4.958,-2.65 -2.975,2.65 m 4.958,-2.65 -2.975,2.65 m -4.957,-2.65 -2.975,2.65 m 12.89,-2.65 -2.975,2.65 m 4.958,-2.65 -2.975,2.65 m 4.958,-2.65 -2.975,2.65 m 4.959,-2.65 -2.976,2.65 m 0,-2.65 2.976,2.65 m -4.959,-2.65 2.975,2.65 m -4.958,-2.65 2.975,2.65 m -4.958,-2.65 2.975,2.65 m -4.958,-2.65 2.975,2.65 m -4.958,-2.65 2.975,2.65 m -4.958,-2.65 2.975,2.65 m -4.958,-2.65 2.975,2.65 m -4.958,-2.65 2.975,2.65 m -4.958,-2.65 2.975,2.65 m -4.958,-2.65 2.975,2.65 m -4.958,-2.65 2.974,2.65 m 4.958,-2.65 2.975,2.65 m -12.89,-2.65 2.974,2.65 m -4.957,-2.65 2.974,2.65 m -4.957,-2.65 2.974,2.65 m -4.957,-2.65 2.974,2.65 m 0,12.37 -2.974,2.66 m 4.957,-2.66 -2.974,2.66 m 4.957,-2.66 -2.974,2.66 m 4.957,-2.66 -2.974,2.66 m 4.957,-2.66 -2.974,2.66 m 4.957,-2.66 -2.974,2.66 m 4.958,-2.66 -2.975,2.66 m 4.958,-2.66 -2.975,2.66 m 4.958,-2.66 -2.975,2.66 m 4.958,-2.66 -2.975,2.66 m 4.958,-2.66 -2.975,2.66 m 4.958,-2.66 -2.975,2.66 m -4.957,-2.66 -2.975,2.66 m 12.89,-2.66 -2.975,2.66 m 4.958,-2.66 -2.975,2.66 m 4.958,-2.66 -2.975,2.66 m 4.959,-2.66 -2.976,2.66 m 0,-2.66 2.976,2.66 m -4.959,-2.66 2.975,2.66 m -4.958,-2.66 2.975,2.66 m -4.958,-2.66 2.975,2.66 m -4.958,-2.66 2.975,2.66 m -4.958,-2.66 2.975,2.66 m -4.958,-2.66 2.975,2.66 m -4.958,-2.66 2.975,2.66 m -4.958,-2.66 2.975,2.66 m -4.958,-2.66 2.975,2.66 m -4.958,-2.66 2.975,2.66 m -4.958,-2.66 2.974,2.66 m 4.958,-2.66 2.975,2.66 m -12.89,-2.66 2.974,2.66 m -4.957,-2.66 2.974,2.66 m -4.957,-2.66 2.974,2.66 m -4.957,-2.66 2.974,2.66"
            id="path7" />
      </g>
      <use transform="scale(-1,1)" x="-300" xlink:href="#a" width="100%" height="100%" id="use7" />
      <g id="b" stroke="#db161b">
         <path
            d="m 126.51,147.12 c -48.114,47.05 -68.638,53 -59.006,56.79 9.632,3.79 40.616,-20.49 72.856,-52.75 32.24,-32.25 51.98,-60.956 42.35,-64.747 -9.63,-3.792 -5.03,10.662 -56.2,60.707 z"
            fill="#ffffff" fill-rule="evenodd" stroke-width="0.565" id="path8" />
         <path
            d="m 86.008,181.31 16.852,4.42 c -15.861,15.03 -33.708,21.22 -38.665,18.57 -4.958,-2.65 8.923,-8.84 21.813,-22.99 z"
            fill="#ffffff" fill-rule="evenodd" stroke-width="0.33" id="path9" />
         <path
            d="m 86.008,183.08 13.881,3.54 c -15.453,14.45 -30.737,18.56 -34.692,16.8 -3.977,-1.77 8.255,-6.74 20.811,-20.34 z"
            fill="#ffffff" fill-rule="evenodd" stroke-width="0.33" id="path10" />
         <path
            d="m 137.79,145.06 c -0.04,0.23 -0.15,1.24 -0.25,1.64 0,0.56 -0.06,0.98 -0.12,1.42 -0.16,0.38 -0.13,0.73 -0.62,0.87 -0.33,0.46 -0.54,0.58 -0.98,0.77 -0.3,0.23 -0.76,0.46 -1.24,0.65 -0.49,0.19 -0.94,0.21 -1.47,0.11 -0.44,-0.27 -0.75,-0.54 -1.11,-0.76 -0.09,-0.35 -0.16,-0.86 -0.25,-1.2 0.13,0.35 0.23,0.91 0.25,1.41 -0.05,0.55 -0.25,0.79 -0.49,1.2 m 1.72,1.2 c -0.04,-0.03 -0.08,-0.07 -0.12,-0.11 0.29,0.26 0.17,0.14 -0.5,-0.21 -0.47,-0.22 -0.98,-0.34 -1.6,-0.44 h -1.72 c -0.67,0 -1.12,0.09 -1.6,0.22 -0.35,0.31 -0.87,0.48 -1.23,0.76 -0.38,0.23 -0.54,0.5 -0.74,0.87 -0.34,0.3 -0.56,0.76 -0.87,0.99 -0.13,0.5 -0.42,0.48 -0.61,0.87 0.58,0.04 1.05,0.11 1.35,0.43 0.52,0.24 -0.43,-0.23 -0.61,-0.43 -0.41,-0.11 -0.51,-0.22 -1.11,-0.22 -0.56,-0.16 -0.9,0.13 -1.48,0.22 -0.33,0.17 -0.43,0.22 -0.86,0.22 m 5.05,2.29 c -0.25,0.01 -1.4,0.2 -1.85,0 -0.5,-0.12 -0.8,-0.36 -1.11,-0.77 -0.15,-0.29 0,0.53 0,0.88 -0.05,0.64 -0.27,0.65 -0.61,1.09 -0.36,0.2 -0.74,0.49 -1.11,0.65 -0.31,0.24 -0.69,0.4 -1.11,0.55 -0.37,0.15 -0.81,0.31 -1.11,0.54 -0.41,0.26 -0.37,0.58 -0.61,0.98 0.04,0.54 0.14,0.84 0.49,1.1 0.14,0.36 0.47,0.73 0.74,0.98 0.3,0.5 0.64,0.73 -0.13,0.87 -0.42,0.16 -0.65,0.03 -1.1,0 m -0.25,0.76 c -0.3,-0.06 -1.38,-0.38 -1.85,-0.54 h -1.72 c -0.67,0.04 -0.8,0.22 -1.36,0.43 -0.36,0.33 -0.61,0.56 -1.11,0.77 -0.26,0.3 -0.78,0.81 -0.98,1.2 -0.15,0.37 -0.25,0.87 -0.25,1.42 0.01,0.63 0.2,0.74 0.25,1.31 0.14,0.46 0.36,0.89 0.74,1.3 0.05,0.14 0.09,0.18 0.24,0.22 m 0.17,1.43 c -0.05,0 -0.17,0.28 -0.35,0.52 -0.39,0.4 -0.44,0.43 -1.05,0.43 -0.54,-0.02 -0.49,-0.21 -0.87,-0.35 -0.18,-0.27 -0.41,-0.49 -0.61,-0.86 -0.14,-0.22 -0.27,-0.57 -0.44,-0.77 -0.16,-0.26 -0.36,-0.45 -0.53,-0.69 -0.16,-0.07 -0.22,-0.14 -0.43,-0.17 0.5,0.08 0.54,0.25 0.87,0.51 0.15,0.25 0.31,0.5 0.44,0.78 0.05,0.37 0.17,0.66 0.17,1.12 0,0.47 0,0.81 -0.17,1.2 -0.21,0.22 -0.36,0.44 -0.61,0.61 -0.21,0.19 -0.46,0.45 -0.62,0.68 -0.27,0.17 -0.47,0.31 -0.78,0.52 -0.27,0.15 -0.55,0.31 -0.96,0.35 -0.52,-0.04 -0.67,-0.18 -1.05,-0.35 -0.33,-0.24 -0.59,-0.39 -0.88,-0.6 -0.23,-0.16 -0.46,-0.47 -0.61,-0.69 -0.47,-0.12 -0.77,-0.07 -1.05,0.17 -0.24,0.16 -0.45,0.37 -0.61,0.6 -0.15,0.07 -0.38,0.28 -0.53,0.35 m 1.04,0.2 c 0.14,0.06 0.64,0.41 0.87,0.54 0.14,0.45 0.36,0.7 0.43,1.18 0.12,0.47 0.11,0.98 0.11,1.51 -0.12,0.55 -0.35,0.95 -0.54,1.39 -0.35,0.24 -0.52,0.4 -0.98,0.65 -0.43,0.06 -0.86,0.11 -1.41,0.11 -0.34,0.11 -0.98,0.16 -1.31,0 -0.48,-0.07 -0.843,-0.26 -1.194,-0.43 -0.402,-0.23 -0.649,-0.44 -1.088,-0.65 -0.213,-0.31 -0.544,-0.59 -0.869,-0.97 -0.271,-0.36 -0.47,-0.56 -0.653,-0.96 0.161,0.46 0.405,0.86 0.544,1.29 0.247,0.45 0.391,0.62 0.435,1.18 0.151,0.45 0.109,0.99 0.109,1.5 -0.048,0.35 -0.073,1.01 -0.218,1.29 v 0.33 m -10.314,1.71 v 0.16 c 0,-0.42 -0.011,-0.21 0.175,0.62 0.33,0.37 1.104,0.47 1.749,0.31 0.566,-0.41 0.548,-0.73 1.574,-0.93 0.991,0.06 1.369,0.32 1.924,0.62 0.658,0.29 0.962,0.44 1.399,1.09 0.217,0.53 0.338,0.89 -0.35,1.09 -0.547,0.35 -1.197,0.54 -1.924,0.63 -0.808,0 -1.39,-0.09 -1.749,0.31 -0.555,0.51 -0.524,0.82 -0.524,1.71 -0.187,0.28 -0.224,1.1 -0.35,1.41 -0.486,0.2 -0.771,0.31 -1.574,0.31 -0.189,-0.48 -0.398,-1.35 -0.525,-1.87 -0.137,-0.56 -0.179,-1.34 -0.525,-1.72 a 4.51,4.51 0 0 0 -1.224,-1.09 c -0.214,-0.27 -0.622,-0.49 -1.049,-0.62 0.686,0.31 0.784,0.65 0.874,1.4 -0.603,0.27 -0.764,0.46 -1.749,0.47 -0.968,-0.07 -1.202,-0.29 -1.574,-0.78 -0.067,0.78 -0.348,1.04 -0.524,1.72 -0.36,0.47 -0.513,0.95 -0.875,1.55 0.154,0.76 0.486,0.79 0.525,1.72 0.227,0.61 0.202,1.19 0.699,1.56 0.222,0.24 0.388,0.29 0.875,0.31 -1.013,0 -1.603,-0.1 -2.274,-0.47 -0.519,-0.28 -0.911,-0.64 -1.399,-0.93 -0.619,-0.4 -1.384,-0.77 -2.099,-0.94 -0.808,0 -1.39,-0.08 -1.749,0.31 -0.495,0.32 -0.828,0.86 -1.049,1.56 -0.162,0.81 -0.224,1.35 0.175,1.87 0.296,0.61 0.363,0.84 0,1.56 -0.407,0.51 -1.012,0.57 -1.924,0.78 a 6.678,6.678 0 0 1 -1.749,-0.31"
            fill="none" stroke-width="0.33" id="path11" />
         <path
            d="m 181.41,104.66 c 21.35,-36.858 35.52,-68.222 31.62,-70.014 -3.89,-1.791 -24.37,26.665 -45.72,63.518 z"
            fill="#ffffff" fill-rule="evenodd" stroke-width="0.447" id="path12" />
         <path d="m 180,104.01 c 20.59,-35.557 34.78,-65.574 31.67,-67.007 -3.11,-1.433 -22.35,26.258 -42.95,61.81"
            fill="#ffffff" fill-rule="evenodd" stroke-width="0.393" id="path13" />
         <path
            d="m 176.46,85.461 c -2.51,4.157 -5.16,8.908 -7.74,13.352 L 180,104.01 c 2.57,-4.448 5.38,-9.13 7.73,-13.356 z"
            fill="#ffffff" fill-rule="evenodd" stroke-width="0.446" id="path14" />
         <path
            d="m 177.41,86.895 c -2.5,4.157 -4.25,7.338 -6.82,11.782 l 8.45,3.893 c 2.58,-4.442 4.48,-7.554 6.83,-11.78 z"
            fill="#ffffff" fill-rule="evenodd" stroke-width="0.446" id="path15" />
         <path transform="matrix(-0.90832,-0.41827,-0.50125,0.8653,0,0)" fill="#ffffff" stroke-width="0.447"
            d="m -205.69,6.558 h 6.207 v 9.985 h -6.207 z" id="path16" />
         <path d="m 183.55,91.712 -10.64,6.043 m 5.63,2.595 -0.63,-11.235 m 31.12,-41.388 -5.64,-2.597" fill="#ffffff"
            fill-rule="evenodd" stroke-width="0.446" id="path17" />
         <circle cx="545.66998" cy="92.125999" transform="matrix(-0.449,0.1132,0.10134,0.39387,444.347,-55.798)"
            r="3.543" fill="#db161b" stroke-width="1.333" id="circle17" />
      </g>
      <use transform="scale(-1,1)" x="-300" xlink:href="#b" width="100%" height="100%" id="use17" />
      <path
         d="m 135.26,84.958 c 0,30.942 0.18,42.602 -2.1,44.202 -2.16,1.71 -62.348,0 -62.348,8.84 0,8.84 49.578,17.68 64.448,17.68 19.83,0 29.75,-8.84 29.75,-26.52 V 84.958 Z"
         fill="#ffffff" fill-rule="evenodd" stroke="#db161b" stroke-width="0.407" id="path18" />
      <path
         d="m 135.26,93.798 v 4.42 a 100.628,100.628 0 0 0 29.75,0 v -4.42 a 100.628,100.628 0 0 1 -29.75,0 z m 0,-8.84 v 4.42 a 100.695,100.695 0 0 0 29.75,0 v -4.42 a 100.695,100.695 0 0 1 -29.75,0 z"
         fill="#ffffff" fill-rule="evenodd" stroke="#db161b" stroke-width="0.352" id="path19" />
      <path
         d="m 135.26,89.378 v 4.42 a 100.628,100.628 0 0 0 29.75,0 v -4.42 a 100.695,100.695 0 0 1 -29.75,0 z m 0,8.84 v 4.422 c 9.92,1.47 19.83,1.47 29.75,0 v -4.422 a 100.628,100.628 0 0 1 -29.75,0 z"
         fill="#ffffff" fill-rule="evenodd" stroke="#db161b" stroke-width="0.352" id="path20" />
      <ellipse cx="256.89001" cy="210.83" transform="matrix(0.15263,0,0,0.03588,97.403,84.326)" ry="26.575001"
         rx="8.8579998" fill="#ffffff" stroke="#db161b" stroke-width="4.463" id="ellipse20" />
      <ellipse cx="292.32001" cy="246.25999" transform="matrix(0.15263,0,0,0.03588,97.403,83.53)" ry="26.575001"
         rx="8.8579998" fill="#ffffff" stroke="#db161b" stroke-width="4.463" id="ellipse21" />
      <ellipse cx="327.76001" cy="263.98001" transform="matrix(0.15263,0,0,0.03588,97.403,83.372)" ry="26.575001"
         rx="8.8579998" fill="#ffffff" stroke="#db161b" stroke-width="4.463" id="ellipse22" />
      <ellipse cx="363.19" cy="263.98001" transform="matrix(0.15263,0,0,0.03588,97.403,83.372)" ry="26.575001"
         rx="8.8579998" fill="#ffffff" stroke="#db161b" stroke-width="4.463" id="ellipse23" />
      <ellipse cx="398.62" cy="246.25999" transform="matrix(0.15263,0,0,0.03588,97.403,83.53)" ry="26.575001"
         rx="8.8579998" fill="#ffffff" stroke="#db161b" stroke-width="4.463" id="ellipse24" />
      <ellipse cx="434.06" cy="210.83" transform="matrix(0.15263,0,0,0.03588,97.403,84.326)" ry="26.575001"
         rx="8.8579998" fill="#ffffff" stroke="#db161b" stroke-width="4.463" id="ellipse25" />
      <g fill="#ffffff" fill-rule="evenodd" stroke="#db161b" stroke-width="0.352" id="g25">
         <path
            d="m 135.26,107.06 29.75,23.87 m -26.78,-23.87 26.78,21.21 m -22.81,-20.33 22.81,17.68 m -19.83,-17.68 19.83,15.03 m -16.86,-15.03 16.86,12.38 m -13.89,-12.38 13.89,9.73 m -10.91,-9.73 10.91,7.07 m -7.94,-7.07 7.94,5.31 m -4.96,-5.31 4.96,3.54 m -1.99,-3.54 1.99,1.77 m -29.75,0 29.75,23.87 m 0,-26.52 -32.72,26.52 m 29.74,-26.52 -28.75,22.98 m 24.79,-22.1 -22.81,17.68 m 19.83,-17.68 -19.83,15.03 m 16.86,-15.03 -16.86,12.38 m 13.88,-12.38 -13.88,9.73 m 10.91,-9.73 -10.91,7.07 m 7.93,-7.07 -7.93,5.31 m 4.96,-5.31 -4.96,3.54 m 1.98,-3.54 -1.98,1.77 m 29.75,0 -32.72,26.52 m 32.72,-23.87 -32.72,26.52 m 32.72,-23.87 -32.72,26.53 m 32.72,-23.87 -32.72,26.52 m 32.72,-23.87 -32.72,26.52 m 32.72,-23.87 -32.72,26.52 m 32.72,-23.87 -32.72,26.52 m 32.72,-23.86 -32.72,26.52 m 32.72,-23.87 -30.74,24.75 m 30.74,-22.1 -27.77,22.1 m 26.77,-18.56 -21.81,17.68 m 20.82,-14.15 -17.84,14.15 m 15.86,-9.73 -8.92,7.07 m -16.86,-39.78 28.75,22.99 M 135.26,115.01 164.01,138 m -28.75,-20.33 27.76,22.1 m -27.76,-19.45 27.76,22.1 m -27.76,-19.45 26.77,21.22 m -27.76,-19.45 26.77,21.22 m -26.77,-18.57 24.79,19.45 m -25.78,-17.68 24.79,19.45 m -25.78,-17.68 23.79,18.56 m -23.79,-15.91 22.8,17.68 m -22.8,-15.03 19.83,15.91"
            id="path25" />
      </g>
      <path
         d="m 135.26,102.64 v 4.42 c 9.92,1.47 19.83,1.47 29.75,0 v -4.42 c -9.92,1.47 -19.83,1.47 -29.75,0 z m -2.97,36.24 17.84,14.15 m -17.84,-11.49 15.86,12.37 m -15.86,-9.72 13.88,10.61 m -13.88,-7.96 9.91,7.96 m -9.91,-5.31 7.93,6.19 m -7.93,-3.54 4.95,3.54"
         fill="#ffffff" fill-rule="evenodd" stroke="#db161b" stroke-width="0.352" id="path26" />
      <ellipse cx="256.89001" cy="210.83" transform="matrix(0.15263,0,0,0.03588,97.403,97.586)" ry="26.575001"
         rx="8.8579998" fill="#ffffff" stroke="#db161b" stroke-width="4.463" id="ellipse26" />
      <ellipse cx="292.32001" cy="246.25999" transform="matrix(0.15263,0,0,0.03588,97.403,96.791)" ry="26.575001"
         rx="8.8579998" fill="#ffffff" stroke="#db161b" stroke-width="4.463" id="ellipse27" />
      <ellipse cx="327.76001" cy="263.98001" transform="matrix(0.15263,0,0,0.03588,97.403,96.632)" ry="26.575001"
         rx="8.8579998" fill="#ffffff" stroke="#db161b" stroke-width="4.463" id="ellipse28" />
      <ellipse cx="363.19" cy="263.98001" transform="matrix(0.15263,0,0,0.03588,97.403,96.632)" ry="26.575001"
         rx="8.8579998" fill="#ffffff" stroke="#db161b" stroke-width="4.463" id="ellipse29" />
      <ellipse cx="398.62" cy="246.25999" transform="matrix(0.15263,0,0,0.03588,97.403,96.791)" ry="26.575001"
         rx="8.8579998" fill="#ffffff" stroke="#db161b" stroke-width="4.463" id="ellipse30" />
      <ellipse cx="434.06" cy="210.83" transform="matrix(0.15263,0,0,0.03588,97.403,97.586)" ry="26.575001"
         rx="8.8579998" fill="#ffffff" stroke="#db161b" stroke-width="4.463" id="ellipse31" />
      <g fill="#ffffff" fill-rule="evenodd" stroke="#db161b" stroke-width="0.352" id="g31">
         <path
            d="m 92.625,148.61 35.695,-18.57 m -37.678,17.68 33.708,-17.68 m -34.699,15.92 30.739,-15.92 m -31.731,14.15 26.771,-14.15 m -28.754,12.38 24.784,-12.38 m -23.792,9.73 16.852,-8.84 m -17.844,7.07 12.89,-7.07 m -12.89,4.42 8.924,-4.42 m 0,18.56 33.71,-17.68 m -30.736,18.57 31.726,-16.8 m -28.75,17.68 29.74,-15.91 m -26.77,16.79 24.79,-13.26 m -20.82,13.26 21.81,-11.49 m -18.84,12.38 18.84,-9.73 m -15.86,10.61 14.87,-7.95 m -10.91,7.95 11.9,-6.19 m -7.93,7.08 7.93,-4.42 m -3.96,4.42 4.95,-2.66"
            id="path31" />
      </g>
      <path
         d="m 133.28,129.16 h -4.96 a 71.66,71.66 0 0 0 0,26.52 h 4.96 a 71.236,71.236 0 0 1 0,-26.52 z m -58.502,12.38 11.898,-8.84 m -11.898,2.65 11.898,10.61"
         fill="#ffffff" fill-rule="evenodd" stroke="#db161b" stroke-width="0.352" id="path32" />
      <path
         d="m 92.625,130.93 -5.949,0.88 c -1.322,5.6 -1.322,10.31 0,15.91 l 5.949,1.77 c -1.322,-5.6 -1.322,-12.96 0,-18.56 z"
         fill="#ffffff" fill-rule="evenodd" stroke="#db161b" stroke-width="0.251" id="path33" />
      <path
         d="m 164.97,86.726 v -4.457 c -4.45,0.037 -7.43,-2.615 -7.43,-5.305 l -14.85,0.037 c 0,2.653 -2.97,5.305 -7.43,5.305 v 4.42 z"
         fill="#ffffff" fill-rule="evenodd" stroke="#db161b" stroke-width="0.431" id="path34" />
      <path fill="#ffffff" stroke="#db161b" stroke-width="0.364"
         d="m 143.75,71.697 h 12.734 v 5.304 H 143.75 Z m 1.06,-5.304 h 10.612 v 5.304 H 144.81 Z m 0,-5.304 h 10.612 v 5.304 H 144.81 Z"
         id="path35" />
      <path fill="#ffffff" stroke="#db161b" stroke-width="0.364" d="m 145.87,54.017 h 8.489 v 7.072 h -8.489 z"
         id="path36" />
      <path fill="#ffffff" stroke="#db161b" stroke-width="0.38" d="m 145.51,47.829 h 9.221 v 6.188 h -9.221 z"
         id="path37" />
      <ellipse cx="237.39999" cy="161.22" transform="matrix(0.28916,0,0,0.2495,81.983,1.86)" ry="33.660999" rx="42.52"
         fill="#ffffff" stroke="#db161b" stroke-width="1.333" id="ellipse37" />
      <path
         d="m 156.78,41.64 c 0,2.319 3.07,6.189 3.07,6.189 -2.23,1.52 -5.83,2.652 -9.22,2.652 -3.39,0 -7.62,-0.631 -9.22,-2.652 0,0 3.07,-3.87 3.07,-6.189 0,-2.318 -3.07,-5.304 -3.07,-5.304 2.22,-1.52 5.83,-2.652 9.22,-2.652 3.39,0 6.99,1.132 9.22,2.652 0,0 -3.07,2.986 -3.07,5.304 z"
         fill="#ffffff" fill-rule="evenodd" stroke="#db161b" stroke-width="0.358" id="path38" />
      <path
         d="m 154.73,41.64 c 0,2.319 3.07,7.073 3.07,7.073 -2.22,1.52 -3.78,1.768 -7.17,1.768 -3.39,0 -5.57,0.253 -7.17,-1.768 0,0 3.07,-4.754 3.07,-7.073 0,-2.318 -3.07,-6.188 -3.07,-6.188 2.22,-1.52 3.78,-1.768 7.17,-1.768 3.39,0 4.95,0.248 7.17,1.768 0,0 -3.07,3.87 -3.07,6.188 z"
         fill="#ffffff" fill-rule="evenodd" stroke="#db161b" stroke-width="0.358" id="path39" />
      <circle cx="194.88" cy="166.53999" transform="matrix(0.28916,0,0,0.2495,81.983,0.975)" r="10.63" fill="#ffffff"
         stroke="#db161b" stroke-width="1.333" id="circle39" />
      <circle cx="194.88" cy="166.53999" transform="matrix(0.28916,0,0,0.2495,106.572,0.975)" r="10.63" fill="#ffffff"
         stroke="#db161b" stroke-width="1.333" id="circle40" />
      <circle cx="194.88" cy="166.53999" transform="matrix(0.28916,0,0,0.2495,94.278,0.975)" r="10.63" fill="#ffffff"
         stroke="#db161b" stroke-width="1.333" id="circle41" />
      <circle cx="194.88" cy="166.53999" transform="matrix(0.28916,0,0,0.2495,94.278,-7.865)" r="10.63" fill="#ffffff"
         stroke="#db161b" stroke-width="1.333" id="circle42" />
      <circle cx="194.88" cy="166.53999" transform="matrix(0.29948,0,0,0.2495,83.264,42.524)" r="10.63" fill="#ffffff"
         stroke="#db161b" stroke-width="1.333" id="circle43" />
      <circle cx="194.88" cy="166.53999" transform="matrix(0.29948,0,0,0.2495,100.242,42.524)" r="10.63" fill="#ffffff"
         stroke="#db161b" stroke-width="1.333" id="circle44" />
      <path d="m 142.69,77.001 h 14.85 l -7.42,7.957 z" fill="#ffffff" fill-rule="evenodd" stroke="#db161b"
         stroke-width="0.364" id="path44" />
      <circle cx="194.88" cy="166.53999" transform="matrix(0.39931,0,0,0.33266,72.298,27.79)" r="10.63" fill="#ffffff"
         stroke="#db161b" stroke-width="1.333" id="circle45" />
      <rect x="133.77" y="109.72" width="22.805" height="5.3039999" ry="0.93800002" rx="1.238" fill="#ffffff"
         stroke="#db161b" stroke-width="0.33" id="rect45" />
      <path
         d="m 163.52,105.3 c -2.75,0 -4.96,2.06 -4.96,4.62 v 4.02 c 0,2.56 2.21,4.62 4.96,4.62 2.75,0 4.96,-2.06 4.96,-4.62 v -4.02 c 0,-2.56 -2.21,-4.62 -4.96,-4.62 z m 0,1.77 c -1.65,0 -2.98,1.65 -2.98,3.7 v 2.33 c 0,2.05 1.33,3.69 2.98,3.69 1.65,0 2.97,-1.64 2.97,-3.69 v -2.33 c 0,-2.05 -1.32,-3.7 -2.97,-3.7 z m -25.78,-0.88 c -1.65,0 -2.97,1.64 -2.97,3.69 v 4.1 c 0,2.05 1.32,3.7 2.97,3.7 1.65,0 2.97,-1.65 2.97,-3.7 v -4.1 c 0,-2.05 -1.32,-3.69 -2.97,-3.69 z m 0,-1.77 c -2.75,0 -4.96,2.06 -4.96,4.62 v 5.79 c 0,2.56 2.21,4.62 4.96,4.62 2.75,0 4.96,-2.06 4.96,-4.62 v -5.79 c 0,-2.56 -2.21,-4.62 -4.96,-4.62 z"
         fill="#ffffff" fill-rule="evenodd" stroke="#db161b" stroke-width="0.33" id="path45" />
      <path
         d="m 129.81,107.95 c -1.65,0 -2.98,1.65 -2.98,3.7 v 0.96 c 0,2.05 1.33,3.7 2.98,3.7 1.65,0 2.97,-1.65 2.97,-3.7 v -0.96 c 0,-2.05 -1.32,-3.7 -2.97,-3.7 z m 0,-1.76 c -2.75,0 -4.96,2.06 -4.96,4.62 v 2.65 c 0,2.56 2.21,4.62 4.96,4.62 2.74,0 4.96,-2.06 4.96,-4.62 v -2.65 c 0,-2.56 -2.22,-4.62 -4.96,-4.62 z"
         fill="#ffffff" fill-rule="evenodd" stroke="#db161b" stroke-width="0.33" id="path46" />
      <path
         d="m 117.91,105.51 c -2.97,0 -5.35,1.84 -5.35,4.13 v 4.58 c 0,2.29 2.38,4.13 5.35,4.13 2.97,0 5.35,-1.84 5.35,-4.13 v -4.58 c 0,-2.29 -2.38,-4.13 -5.35,-4.13 z m 0,-1.98 c -4.94,0 -8.92,2.31 -8.92,5.17 v 6.47 c 0,2.86 3.98,5.16 8.92,5.16 4.94,0 8.92,-2.3 8.92,-5.16 v -6.47 c 0,-2.86 -3.98,-5.17 -8.92,-5.17 z m 64.45,2.86 c -2.97,0 -5.36,1.85 -5.36,4.14 v 4.58 c 0,2.29 2.39,4.13 5.36,4.13 2.96,0 5.35,-1.84 5.35,-4.13 v -4.58 c 0,-2.29 -2.39,-4.14 -5.35,-4.14 z m 0,-1.97 c -4.95,0 -8.93,2.3 -8.93,5.16 v 6.47 c 0,2.86 3.98,5.16 8.93,5.16 4.94,0 8.92,-2.3 8.92,-5.16 v -6.47 c 0,-2.86 -3.98,-5.16 -8.92,-5.16 z"
         fill="#ffffff" fill-rule="evenodd" stroke="#db161b" stroke-width="0.33" id="path47" />
      <rect x="165.5" y="109.72" width="11.898" height="5.3039999" ry="0.93800002" rx="0.64600003" fill="#ffffff"
         stroke="#db161b" stroke-width="0.33" id="rect47" />
      <rect x="154.60001" y="108.84" width="6.941" height="7.072" ry="1.251" rx="0.377" fill="#ffffff" stroke="#db161b"
         stroke-width="0.33" id="rect48" />
      <rect x="121.88" y="108.84" width="6.941" height="7.072" ry="1.251" rx="0.377" fill="#ffffff" stroke="#db161b"
         stroke-width="0.33" id="rect49" />
      <rect x="100.06" y="107.95" width="13.881" height="8.8400002" ry="1.563" rx="0.75300002" fill="#ffffff"
         stroke="#db161b" stroke-width="0.33" id="rect50" />
      <rect x="186.32001" y="108.84" width="12.89" height="8.8400002" ry="1.563" rx="0.69999999" fill="#ffffff"
         stroke="#db161b" stroke-width="0.33" id="rect51" />
   </g>
</svg>
