<?xml version="1.0" encoding="UTF-8" standalone="no"?>
<svg
   xmlns:dc="http://purl.org/dc/elements/1.1/"
   xmlns:cc="http://creativecommons.org/ns#"
   xmlns:rdf="http://www.w3.org/1999/02/22-rdf-syntax-ns#"
   xmlns:svg="http://www.w3.org/2000/svg"
   xmlns="http://www.w3.org/2000/svg"
   xmlns:sodipodi="http://sodipodi.sourceforge.net/DTD/sodipodi-0.dtd"
   xmlns:inkscape="http://www.inkscape.org/namespaces/inkscape"
   viewBox="0 0 600 600"
   width="600"
   height="600"
   version="1.1"
   id="svg18"
   sodipodi:docname="Flag of Slovakia.svg"
   inkscape:version="1.0.1 (3bc2e813f5, 2020-09-07)">
  <metadata
     id="metadata24">
    <rdf:RDF>
      <cc:Work
         rdf:about="">
        <dc:format>image/svg+xml</dc:format>
        <dc:type
           rdf:resource="http://purl.org/dc/dcmitype/StillImage" />
      </cc:Work>
    </rdf:RDF>
  </metadata>
  <defs
     id="defs22" />
  <sodipodi:namedview
     pagecolor="#ffffff"
     bordercolor="#666666"
     borderopacity="1"
     objecttolerance="10"
     gridtolerance="10"
     guidetolerance="10"
     inkscape:pageopacity="0"
     inkscape:pageshadow="2"
     inkscape:window-width="1920"
     inkscape:window-height="1001"
     id="namedview20"
     showgrid="false"
     inkscape:zoom="0.72"
     inkscape:cx="855.34279"
     inkscape:cy="335.81384"
     inkscape:window-x="-9"
     inkscape:window-y="-9"
     inkscape:window-maximized="1"
     inkscape:current-layer="svg18" />
  <rect
     x="0"
     y="0"
     fill="#ee1c25"
     width="600"
     height="600"
     id="rect2"
     style="stroke-width:0.816497" />
  <rect
     x="0"
     y="0"
     fill="#0b4ea2"
     width="600"
     height="400"
     id="rect4"
     style="stroke-width:0.816497" />
  <rect
     x="0"
     y="0"
     fill="#ffffff"
     width="600"
     height="200"
     id="rect6"
     style="stroke-width:0.816497" />
  <g
     id="g16"
     transform="translate(-89.958)">
    <path
       fill="#ffffff"
       d="m 393.479,141 h -8.103 -115.459 -115.456 -8.103 l -0.847,8.059 c -0.184,1.752 -4.511,43.971 -4.511,136.69 0,43.563 14.726,81.996 43.77,114.23 20.349,22.585 46.923,41.599 81.242,58.129 l 3.905,1.881 3.906,-1.881 c 34.32,-16.53 60.896,-35.544 81.246,-58.129 29.044,-32.234 43.771,-70.667 43.771,-114.23 0,-92.718 -4.328,-134.938 -4.512,-136.69 z"
       id="path8" />
    <path
       fill="#ee1c25"
       d="M 269.917,450 C 220.577,426.234 150,379.062 150,285.749 150,192.436 154.461,150 154.461,150 h 115.456 115.459 c 0,0 4.463,42.437 4.463,135.749 0,93.313 -70.578,140.485 -119.922,164.251 z"
       id="path10" />
    <path
       fill="#ffffff"
       d="m 280.484,261.284 c 13.36,0.216 39.425,0.739 62.635,-7.027 0,0 -0.613,8.306 -0.613,17.98 0,9.677 0.613,17.982 0.613,17.982 -21.289,-7.125 -47.58,-7.273 -62.635,-7.082 v 51.539 H 259.38 v -51.539 c -15.055,-0.191 -41.345,-0.043 -62.635,7.082 0,0 0.613,-8.305 0.613,-17.982 0,-9.675 -0.613,-17.98 -0.613,-17.98 23.21,7.766 49.275,7.243 62.635,7.027 v -32.368 c -12.177,-0.108 -29.723,0.473 -49.563,7.113 0,0 0.613,-8.305 0.613,-17.982 0,-9.676 -0.613,-17.981 -0.613,-17.981 19.81,6.628 37.336,7.219 49.509,7.114 -0.626,-20.498 -6.597,-46.332 -6.597,-46.332 0,0 12.289,0.959 17.202,0.959 4.918,0 17.203,-0.959 17.203,-0.959 0,0 -5.969,25.835 -6.596,46.33 12.174,0.106 29.699,-0.485 49.509,-7.114 0,0 -0.613,8.305 -0.613,17.981 0,9.677 0.613,17.982 0.613,17.982 -19.839,-6.639 -37.386,-7.221 -49.563,-7.113 v 32.368 z"
       id="path12" />
    <path
       fill="#0b4ea2"
       d="m 269.904,329.094 c -24.852,0 -38.163,34.469 -38.163,34.469 0,0 -7.385,-16.344 -27.661,-16.344 -13.719,0 -23.829,12.201 -30.256,23.5 24.959,39.705 64.78,64.207 96.079,79.281 31.305,-15.075 71.152,-39.571 96.112,-79.281 -6.427,-11.299 -16.537,-23.5 -30.256,-23.5 -20.277,0 -27.693,16.344 -27.693,16.344 0,0 -13.308,-34.469 -38.162,-34.469 z"
       id="path14" />
  </g>
</svg>
